AnekGurmukhi-ExtraBold.ufo
<glyph name="Thorn" format="2">
  <advance width="1203"/>
  <unicode hex="00DE"/>
  <anchor x="602" y="0" name="bottom"/>
  <anchor x="602" y="1278" name="top"/>
  <outline>
    <contour>
      <point x="348" y="176" type="line"/>
      <point x="664" y="176" type="line" smooth="yes"/>
      <point x="1000" y="176"/>
      <point x="1154" y="324"/>
      <point x="1154" y="606" type="curve" smooth="yes"/>
      <point x="1154" y="680" type="line" smooth="yes"/>
      <point x="1154" y="960"/>
      <point x="1000" y="1111"/>
      <point x="662" y="1111" type="curve" smooth="yes"/>
      <point x="348" y="1111" type="line"/>
      <point x="348" y="821" type="line"/>
      <point x="630" y="821" type="line" smooth="yes"/>
      <point x="748" y="821"/>
      <point x="796" y="774"/>
      <point x="796" y="669" type="curve" smooth="yes"/>
      <point x="796" y="618" type="line" smooth="yes"/>
      <point x="796" y="513"/>
      <point x="748" y="467"/>
      <point x="630" y="467" type="curve" smooth="yes"/>
      <point x="348" y="467" type="line"/>
    </contour>
    <contour>
      <point x="104" y="0" type="line"/>
      <point x="460" y="0" type="line"/>
      <point x="460" y="222" type="line"/>
      <point x="458" y="387" type="line"/>
      <point x="458" y="907" type="line"/>
      <point x="460" y="1045" type="line"/>
      <point x="460" y="1278" type="line"/>
      <point x="104" y="1278" type="line"/>
    </contour>
  </outline>
</glyph>
<glyph name="Danda.gm" format="2">
  <advance width="655"/>
  <unicode hex="0964"/>
  <outline>
    <contour>
      <point x="155" y="0" type="line"/>
      <point x="500" y="0" type="line"/>
      <point x="500" y="1241" type="line"/>
      <point x="155" y="1241" type="line"/>
    </contour>
  </outline>
</glyph>
<glyph name="Doubledanda.gm" format="2">
  <advance width="1162"/>
  <unicode hex="0965"/>
  <outline>
    <contour>
      <point x="680" y="0" type="line"/>
      <point x="1017" y="0" type="line"/>
      <point x="1017" y="1244" type="line"/>
      <point x="680" y="1244" type="line"/>
    </contour>
    <contour>
      <point x="145" y="0" type="line"/>
      <point x="482" y="0" type="line"/>
      <point x="482" y="1244" type="line"/>
      <point x="145" y="1244" type="line"/>
    </contour>
  </outline>
</glyph>
<glyph name="AddakBindi.gm" format="2">
  <unicode hex="0A01"/>
  <anchor x="391" y="1200" name="_top"/>
  <outline>
    <contour>
      <point x="250" y="1678" type="curve" smooth="yes"/>
      <point x="318" y="1678"/>
      <point x="348" y="1714"/>
      <point x="348" y="1774" type="curve" smooth="yes"/>
      <point x="348" y="1777" type="line" smooth="yes"/>
      <point x="348" y="1835"/>
      <point x="318" y="1872"/>
      <point x="250" y="1872" type="curve" smooth="yes"/>
      <point x="181" y="1872"/>
      <point x="151" y="1835"/>
      <point x="151" y="1777" type="curve" smooth="yes"/>
      <point x="151" y="1773" type="line" smooth="yes"/>
      <point x="151" y="1715"/>
      <point x="181" y="1678"/>
    </contour>
    <component base="Addak.gm"/>
  </outline>
</glyph>
<glyph name="Bindi.gm" format="2">
  <unicode hex="0A02"/>
  <anchor x="500" y="1200" name="_top"/>
  <outline>
    <contour>
      <point x="236" y="1416" type="curve" smooth="yes"/>
      <point x="363" y="1416"/>
      <point x="419" y="1483"/>
      <point x="419" y="1593" type="curve" smooth="yes"/>
      <point x="419" y="1600" type="line" smooth="yes"/>
      <point x="419" y="1708"/>
      <point x="363" y="1777"/>
      <point x="236" y="1777" type="curve" smooth="yes"/>
      <point x="108" y="1777"/>
      <point x="53" y="1708"/>
      <point x="53" y="1599" type="curve" smooth="yes"/>
      <point x="53" y="1592" type="line" smooth="yes"/>
      <point x="53" y="1484"/>
      <point x="108" y="1416"/>
    </contour>
  </outline>
</glyph>
<glyph name="Visarga.gm" format="2">
  <advance width="692"/>
  <unicode hex="0A03"/>
  <outline>
    <contour>
      <point x="345" y="569" type="curve" smooth="yes"/>
      <point x="468" y="569"/>
      <point x="532" y="637"/>
      <point x="532" y="753" type="curve" smooth="yes"/>
      <point x="532" y="767" type="line" smooth="yes"/>
      <point x="532" y="882"/>
      <point x="468" y="951"/>
      <point x="345" y="951" type="curve" smooth="yes"/>
      <point x="222" y="951"/>
      <point x="160" y="880"/>
      <point x="160" y="767" type="curve" smooth="yes"/>
      <point x="160" y="753" type="line" smooth="yes"/>
      <point x="160" y="637"/>
      <point x="222" y="569"/>
    </contour>
    <contour>
      <point x="345" y="0" type="curve" smooth="yes"/>
      <point x="468" y="0"/>
      <point x="532" y="68"/>
      <point x="532" y="184" type="curve" smooth="yes"/>
      <point x="532" y="198" type="line" smooth="yes"/>
      <point x="532" y="313"/>
      <point x="468" y="382"/>
      <point x="345" y="382" type="curve" smooth="yes"/>
      <point x="222" y="382"/>
      <point x="160" y="311"/>
      <point x="160" y="198" type="curve" smooth="yes"/>
      <point x="160" y="184" type="line" smooth="yes"/>
      <point x="160" y="68"/>
      <point x="222" y="0"/>
    </contour>
  </outline>
</glyph>
<glyph name="VowelA.gm" format="2">
  <advance width="1721"/>
  <unicode hex="0A05"/>
  <anchor x="1710" y="1200" name="top"/>
  <outline>
    <contour>
      <point x="666" y="84" type="curve"/>
      <point x="1015" y="84" type="line"/>
      <point x="1041" y="217"/>
      <point x="1059" y="412"/>
      <point x="1059" y="591" type="curve" smooth="yes"/>
      <point x="1059" y="714"/>
      <point x="1047" y="922"/>
      <point x="1028" y="1091" type="curve"/>
      <point x="755" y="1091" type="line"/>
      <point x="271" y="774" type="line"/>
      <point x="306" y="460" type="line"/>
      <point x="802" y="773" type="line"/>
      <point x="700" y="785" type="line"/>
      <point x="709" y="715"/>
      <point x="713" y="645"/>
      <point x="713" y="585" type="curve" smooth="yes"/>
      <point x="713" y="424"/>
      <point x="695" y="237"/>
    </contour>
    <contour>
      <point x="86" y="284" type="curve"/>
      <point x="440" y="284" type="line"/>
      <point x="468" y="421"/>
      <point x="484" y="608"/>
      <point x="484" y="788" type="curve" smooth="yes"/>
      <point x="484" y="912"/>
      <point x="474" y="1084"/>
      <point x="455" y="1242" type="curve"/>
      <point x="5" y="1242" type="line"/>
      <point x="15" y="986" type="line"/>
      <point x="121" y="986" type="line"/>
      <point x="129" y="916"/>
      <point x="133" y="847"/>
      <point x="133" y="785" type="curve" smooth="yes"/>
      <point x="133" y="623"/>
      <point x="118" y="448"/>
    </contour>
    <contour>
      <point x="870" y="282" type="line"/>
      <point x="1387" y="572" type="line"/>
      <point x="1387" y="916" type="line"/>
      <point x="870" y="624" type="line"/>
    </contour>
    <component base="_cap.shiro_left"/>
    <component base="_danda" xOffset="1092"/>
  </outline>
</glyph>
<glyph name="VowelEe.gm" format="2">
  <advance width="1258"/>
  <unicode hex="0A0F"/>
  <anchor x="1521" y="1387" name="top1"/>
  <outline>
    <contour>
      <point x="747" y="-34" type="curve" smooth="yes"/>
      <point x="910" y="-34"/>
      <point x="1046" y="-5"/>
      <point x="1156" y="45" type="curve"/>
      <point x="1174" y="324" type="line"/>
      <point x="1058" y="277"/>
      <point x="927" y="248"/>
      <point x="772" y="248" type="curve" smooth="yes"/>
      <point x="578" y="248"/>
      <point x="449" y="311"/>
      <point x="449" y="413" type="curve" smooth="yes"/>
      <point x="449" y="486" type="line"/>
      <point x="369" y="371" type="line"/>
      <point x="573" y="436"/>
      <point x="858" y="491"/>
      <point x="1137" y="523" type="curve"/>
      <point x="1137" y="1096" type="line"/>
      <point x="794" y="1096" type="line"/>
      <point x="794" y="740" type="line"/>
      <point x="714" y="729"/>
      <point x="633" y="715"/>
      <point x="553" y="699" type="curve"/>
      <point x="521" y="688" type="line"/>
      <point x="372" y="658"/>
      <point x="228" y="623"/>
      <point x="100" y="585" type="curve"/>
      <point x="100" y="450" type="line" smooth="yes"/>
      <point x="100" y="162"/>
      <point x="308" y="-34"/>
    </contour>
    <contour>
      <point x="449" y="662" type="line"/>
      <point x="574" y="668" type="line"/>
      <point x="659" y="696" type="line"/>
      <point x="534" y="720"/>
      <point x="486" y="806"/>
      <point x="486" y="902" type="curve" smooth="yes"/>
      <point x="486" y="1104" type="line"/>
      <point x="100" y="1104" type="line"/>
      <point x="100" y="943" type="line" smooth="yes"/>
      <point x="100" y="748"/>
      <point x="231" y="683"/>
      <point x="449" y="680" type="curve"/>
    </contour>
    <contour>
      <point x="28" y="986" type="line"/>
      <point x="289" y="986" type="line"/>
      <point x="314" y="1002" type="line"/>
      <point x="963" y="1002" type="line"/>
      <point x="988" y="986" type="line"/>
      <point x="1227" y="986" type="line"/>
      <point x="1227" y="1242" type="line"/>
      <point x="28" y="1242" type="line"/>
    </contour>
    <contour>
      <point x="956" y="1209" type="line"/>
      <point x="1122" y="1209" type="line"/>
      <point x="1107" y="1656"/>
      <point x="905" y="1771"/>
      <point x="526" y="1771" type="curve" smooth="yes"/>
      <point x="455" y="1771"/>
      <point x="383" y="1766"/>
      <point x="320" y="1757" type="curve"/>
      <point x="298" y="1464" type="line"/>
      <point x="376" y="1474"/>
      <point x="472" y="1478"/>
      <point x="516" y="1478" type="curve" smooth="yes"/>
      <point x="832" y="1478"/>
      <point x="944" y="1400"/>
      <point x="956" y="1215" type="curve" smooth="yes"/>
    </contour>
    <component base="_cap.shiro_left"/>
    <component base="_cap.shiro_right" xOffset="941"/>
  </outline>
</glyph>
<glyph name="VowelOo.gm" format="2">
  <advance width="1341"/>
  <unicode hex="0A13"/>
  <outline>
    <contour>
      <point x="710" y="-31" type="curve" smooth="yes"/>
      <point x="1073" y="-31"/>
      <point x="1238" y="119"/>
      <point x="1238" y="349" type="curve" smooth="yes"/>
      <point x="1238" y="370" type="line" smooth="yes"/>
      <point x="1238" y="518"/>
      <point x="1148" y="640"/>
      <point x="852" y="640" type="curve"/>
      <point x="957" y="544" type="line"/>
      <point x="957" y="644" type="line"/>
      <point x="1200" y="647"/>
      <point x="1273" y="801"/>
      <point x="1273" y="988" type="curve" smooth="yes"/>
      <point x="1273" y="1083" type="line"/>
      <point x="928" y="1083" type="line"/>
      <point x="928" y="964" type="line" smooth="yes"/>
      <point x="928" y="831"/>
      <point x="848" y="768"/>
      <point x="711" y="768" type="curve" smooth="yes"/>
      <point x="278" y="768" type="line"/>
      <point x="278" y="498" type="line"/>
      <point x="728" y="498" type="line" smooth="yes"/>
      <point x="842" y="498"/>
      <point x="881" y="451"/>
      <point x="881" y="385" type="curve" smooth="yes"/>
      <point x="881" y="383" type="line" smooth="yes"/>
      <point x="881" y="305"/>
      <point x="836" y="249"/>
      <point x="698" y="249" type="curve" smooth="yes"/>
      <point x="513" y="249"/>
      <point x="438" y="348"/>
      <point x="438" y="581" type="curve" smooth="yes"/>
      <point x="438" y="1079" type="line" smooth="yes"/>
      <point x="438" y="1352"/>
      <point x="550" y="1447"/>
      <point x="813" y="1447" type="curve" smooth="yes"/>
      <point x="910" y="1447"/>
      <point x="1016" y="1432"/>
      <point x="1121" y="1404" type="curve"/>
      <point x="1104" y="1673" type="line"/>
      <point x="1012" y="1705"/>
      <point x="895" y="1725"/>
      <point x="779" y="1725" type="curve" smooth="yes"/>
      <point x="319" y="1725"/>
      <point x="94" y="1515"/>
      <point x="94" y="1079" type="curve" smooth="yes"/>
      <point x="94" y="584" type="line" smooth="yes"/>
      <point x="94" y="184"/>
      <point x="297" y="-31"/>
    </contour>
    <contour>
      <point x="9" y="986" type="line"/>
      <point x="258" y="986" type="line"/>
      <point x="261" y="995" type="line"/>
      <point x="1138" y="995" type="line"/>
      <point x="1143" y="986" type="line"/>
      <point x="1328" y="986" type="line"/>
      <point x="1328" y="1242" type="line"/>
      <point x="9" y="1242" type="line"/>
    </contour>
    <component base="_cap.shiro_left"/>
    <component base="_cap.shiro_right" xOffset="1024"/>
  </outline>
</glyph>
<glyph name="Ka.gm" format="2">
  <advance width="1358"/>
  <unicode hex="0A15"/>
  <anchor x="1461" y="100" name="bottom"/>
  <anchor x="1425" y="100" name="bottom1"/>
  <anchor x="1372" y="1200" name="top"/>
  <outline>
    <contour>
      <point x="23" y="985" type="line"/>
      <point x="1360" y="985" type="line"/>
      <point x="1360" y="1242" type="line"/>
      <point x="23" y="1242" type="line"/>
    </contour>
    <contour>
      <point x="915" y="0" type="line"/>
      <point x="1271" y="0" type="line"/>
      <point x="1263" y="103" type="line" smooth="yes"/>
      <point x="1243" y="359"/>
      <point x="1150" y="483"/>
      <point x="1011" y="596" type="curve"/>
      <point x="958" y="652" type="line"/>
      <point x="849" y="799"/>
      <point x="705" y="871"/>
      <point x="496" y="871" type="curve" smooth="yes"/>
      <point x="220" y="871"/>
      <point x="70" y="736"/>
      <point x="70" y="507" type="curve" smooth="yes"/>
      <point x="70" y="495" type="line" smooth="yes"/>
      <point x="70" y="269"/>
      <point x="236" y="137"/>
      <point x="523" y="137" type="curve" smooth="yes"/>
      <point x="740" y="137"/>
      <point x="889" y="216"/>
      <point x="972" y="357" type="curve"/>
      <point x="1012" y="418" type="line"/>
      <point x="1161" y="564"/>
      <point x="1239" y="745"/>
      <point x="1260" y="968" type="curve" smooth="yes"/>
      <point x="1273" y="1108" type="line"/>
      <point x="909" y="1104" type="line"/>
      <point x="901" y="978" type="line" smooth="yes"/>
      <point x="893" y="854"/>
      <point x="850" y="713"/>
      <point x="814" y="651" type="curve"/>
      <point x="830" y="571" type="line"/>
      <point x="830" y="492"/>
      <point x="695" y="419"/>
      <point x="576" y="419" type="curve" smooth="yes"/>
      <point x="469" y="419"/>
      <point x="424" y="447"/>
      <point x="424" y="502" type="curve" smooth="yes"/>
      <point x="424" y="503" type="line" smooth="yes"/>
      <point x="424" y="559"/>
      <point x="469" y="589"/>
      <point x="576" y="589" type="curve" smooth="yes"/>
      <point x="693" y="589"/>
      <point x="833" y="517"/>
      <point x="833" y="423" type="curve"/>
      <point x="819" y="368" type="line"/>
      <point x="850" y="322"/>
      <point x="890" y="249"/>
      <point x="905" y="99" type="curve"/>
    </contour>
    <component base="_cap.shiro_left"/>
    <component base="_cap.shiro_right" xOffset="1040"/>
  </outline>
</glyph>
<glyph name="Kha.gm" format="2">
  <advance width="1356"/>
  <unicode hex="0A16"/>
  <anchor x="1456" y="100" name="bottom"/>
  <anchor x="1403" y="100" name="bottom1"/>
  <anchor x="1349" y="1200" name="top"/>
  <outline>
    <contour>
      <point x="616" y="135" type="curve" smooth="yes"/>
      <point x="706" y="135"/>
      <point x="783" y="152"/>
      <point x="829" y="171" type="curve"/>
      <point x="895" y="381" type="line"/>
      <point x="919" y="381" type="line"/>
      <point x="908" y="472" type="line"/>
      <point x="863" y="443"/>
      <point x="781" y="419"/>
      <point x="684" y="419" type="curve" smooth="yes"/>
      <point x="570" y="419"/>
      <point x="470" y="452"/>
      <point x="405" y="522" type="curve"/>
      <point x="433" y="443" type="line"/>
      <point x="474" y="592"/>
      <point x="496" y="749"/>
      <point x="496" y="935" type="curve" smooth="yes"/>
      <point x="496" y="1031"/>
      <point x="490" y="1134"/>
      <point x="479" y="1242" type="curve"/>
      <point x="36" y="1242" type="line"/>
      <point x="36" y="986" type="line"/>
      <point x="138" y="986" type="line"/>
      <point x="142" y="941"/>
      <point x="143" y="896"/>
      <point x="143" y="852" type="curve" smooth="yes"/>
      <point x="143" y="680"/>
      <point x="113" y="515"/>
      <point x="60" y="395" type="curve"/>
      <point x="170" y="222"/>
      <point x="355" y="135"/>
    </contour>
    <contour>
      <point x="289" y="654" type="line"/>
      <point x="1076" y="654" type="line"/>
      <point x="1076" y="927" type="line"/>
      <point x="289" y="927" type="line"/>
    </contour>
    <component base="_danda" xOffset="727"/>
    <component base="_cap.shiro_left"/>
  </outline>
</glyph>
<glyph name="Ga.gm" format="2">
  <advance width="1750"/>
  <unicode hex="0A17"/>
  <anchor x="1850" y="100" name="bottom"/>
  <anchor x="1655" y="95" name="bottom1"/>
  <anchor x="1743" y="1200" name="top"/>
  <outline>
    <contour>
      <point x="610" y="-33" type="curve" smooth="yes"/>
      <point x="903" y="-33"/>
      <point x="1083" y="102"/>
      <point x="1083" y="373" type="curve" smooth="yes"/>
      <point x="1083" y="1022" type="line"/>
      <point x="740" y="1022" type="line"/>
      <point x="740" y="692" type="line"/>
      <point x="743" y="676" type="line"/>
      <point x="743" y="385" type="line" smooth="yes"/>
      <point x="743" y="300"/>
      <point x="693" y="250"/>
      <point x="609" y="250" type="curve" smooth="yes"/>
      <point x="500" y="250"/>
      <point x="435" y="314"/>
      <point x="435" y="418" type="curve" smooth="yes"/>
      <point x="435" y="420" type="line" smooth="yes"/>
      <point x="435" y="513"/>
      <point x="486" y="549"/>
      <point x="578" y="549" type="curve" smooth="yes"/>
      <point x="887" y="549" type="line"/>
      <point x="887" y="825" type="line"/>
      <point x="534" y="825" type="line" smooth="yes"/>
      <point x="216" y="825"/>
      <point x="83" y="692"/>
      <point x="83" y="440" type="curve" smooth="yes"/>
      <point x="83" y="432" type="line" smooth="yes"/>
      <point x="83" y="178"/>
      <point x="257" y="-33"/>
    </contour>
    <contour>
      <point x="34" y="986" type="line"/>
      <point x="1442" y="986" type="line"/>
      <point x="1442" y="1242" type="line"/>
      <point x="34" y="1242" type="line"/>
    </contour>
    <component base="_danda" xOffset="1121"/>
    <component base="_cap.shiro_left"/>
  </outline>
</glyph>
<glyph name="Gha.gm" format="2">
  <advance width="1712"/>
  <unicode hex="0A18"/>
  <anchor x="1812" y="100" name="bottom"/>
  <anchor x="1571" y="100" name="bottom1"/>
  <anchor x="1705" y="1200" name="top"/>
  <outline>
    <contour>
      <point x="518" y="183" type="curve" smooth="yes"/>
      <point x="594" y="183"/>
      <point x="641" y="193"/>
      <point x="683" y="205" type="curve"/>
      <point x="730" y="383" type="line"/>
      <point x="901" y="383" type="line"/>
      <point x="796" y="596" type="line"/>
      <point x="754" y="505"/>
      <point x="708" y="468"/>
      <point x="589" y="468" type="curve" smooth="yes"/>
      <point x="505" y="468"/>
      <point x="441" y="498"/>
      <point x="419" y="538" type="curve"/>
      <point x="422" y="499" type="line"/>
      <point x="473" y="608"/>
      <point x="494" y="753"/>
      <point x="494" y="935" type="curve" smooth="yes"/>
      <point x="494" y="1031"/>
      <point x="489" y="1134"/>
      <point x="477" y="1242" type="curve"/>
      <point x="36" y="1242" type="line"/>
      <point x="45" y="986" type="line"/>
      <point x="136" y="986" type="line"/>
      <point x="140" y="941"/>
      <point x="142" y="896"/>
      <point x="142" y="852" type="curve" smooth="yes"/>
      <point x="142" y="680"/>
      <point x="126" y="539"/>
      <point x="62" y="415" type="curve"/>
      <point x="146" y="269"/>
      <point x="303" y="183"/>
    </contour>
    <contour>
      <point x="1059" y="184" type="curve" smooth="yes"/>
      <point x="1114" y="184"/>
      <point x="1156" y="193"/>
      <point x="1188" y="205" type="curve"/>
      <point x="1250" y="390" type="line"/>
      <point x="1285" y="390" type="line"/>
      <point x="1272" y="506" type="line"/>
      <point x="1253" y="483"/>
      <point x="1220" y="468"/>
      <point x="1162" y="468" type="curve" smooth="yes"/>
      <point x="1103" y="468"/>
      <point x="1060" y="488"/>
      <point x="1040" y="526" type="curve"/>
      <point x="722" y="477" type="line"/>
      <point x="722" y="306"/>
      <point x="836" y="184"/>
    </contour>
    <contour>
      <point x="1054" y="1222" type="line"/>
      <point x="707" y="1177" type="line"/>
      <point x="707" y="803" type="line" smooth="yes"/>
      <point x="707" y="714"/>
      <point x="710" y="526"/>
      <point x="716" y="453" type="curve"/>
      <point x="1053" y="451" type="line"/>
      <point x="1053" y="569"/>
      <point x="1054" y="688"/>
      <point x="1054" y="807" type="curve" smooth="yes"/>
    </contour>
    <component base="_danda" xOffset="1083"/>
    <component base="_cap.shiro_left"/>
  </outline>
</glyph>
<glyph name="Nga.gm" format="2">
  <advance width="1297"/>
  <unicode hex="0A19"/>
  <anchor x="1168" y="50" name="bottom"/>
  <anchor x="1381" y="10" name="bottom1"/>
  <anchor x="1281" y="1200" name="top"/>
  <outline>
    <contour>
      <point x="51" y="986" type="line"/>
      <point x="359" y="986" type="line"/>
      <point x="367" y="993" type="line"/>
      <point x="1245" y="985" type="line"/>
      <point x="1245" y="1242" type="line"/>
      <point x="51" y="1242" type="line"/>
    </contour>
    <contour>
      <point x="554" y="-29" type="curve" smooth="yes"/>
      <point x="737" y="-29"/>
      <point x="867" y="15"/>
      <point x="973" y="81" type="curve"/>
      <point x="999" y="127" type="line"/>
      <point x="1142" y="197"/>
      <point x="1226" y="331"/>
      <point x="1226" y="509" type="curve" smooth="yes"/>
      <point x="1226" y="537" type="line" smooth="yes"/>
      <point x="1226" y="751"/>
      <point x="1084" y="883"/>
      <point x="777" y="883" type="curve" smooth="yes"/>
      <point x="483" y="883" type="line"/>
      <point x="483" y="1125" type="line"/>
      <point x="137" y="1125" type="line"/>
      <point x="137" y="643" type="line"/>
      <point x="700" y="643" type="line" smooth="yes"/>
      <point x="824" y="643"/>
      <point x="881" y="602"/>
      <point x="881" y="513" type="curve" smooth="yes"/>
      <point x="881" y="498" type="line" smooth="yes"/>
      <point x="881" y="448"/>
      <point x="858" y="425"/>
      <point x="828" y="402" type="curve"/>
      <point x="823" y="317" type="line"/>
      <point x="781" y="252"/>
      <point x="704" y="214"/>
      <point x="569" y="214" type="curve" smooth="yes"/>
      <point x="462" y="214"/>
      <point x="434" y="241"/>
      <point x="434" y="277" type="curve" smooth="yes"/>
      <point x="434" y="281" type="line" smooth="yes"/>
      <point x="434" y="319"/>
      <point x="465" y="347"/>
      <point x="557" y="347" type="curve" smooth="yes"/>
      <point x="665" y="347"/>
      <point x="774" y="300"/>
      <point x="839" y="193" type="curve"/>
      <point x="961" y="313" type="line"/>
      <point x="867" y="516"/>
      <point x="694" y="565"/>
      <point x="483" y="565" type="curve" smooth="yes"/>
      <point x="183" y="565"/>
      <point x="88" y="442"/>
      <point x="88" y="278" type="curve" smooth="yes"/>
      <point x="88" y="275" type="line" smooth="yes"/>
      <point x="88" y="83"/>
      <point x="242" y="-29"/>
    </contour>
    <contour>
      <point x="921" y="-127" type="line"/>
      <point x="1275" y="-127" type="line"/>
      <point x="1032" y="339" type="line"/>
      <point x="823" y="153" type="line"/>
    </contour>
    <component base="_cap.shiro_left"/>
    <component base="_cap.shiro_right" xOffset="989"/>
  </outline>
</glyph>
<glyph name="Ca.gm" format="2">
  <advance width="1337"/>
  <unicode hex="0A1A"/>
  <anchor x="1265" y="100" name="bottom"/>
  <anchor x="1414" y="100" name="bottom1"/>
  <anchor x="1337" y="1200" name="top"/>
  <outline>
    <contour>
      <point x="709" y="-31" type="curve" smooth="yes"/>
      <point x="1056" y="-31"/>
      <point x="1235" y="111"/>
      <point x="1235" y="401" type="curve" smooth="yes"/>
      <point x="1235" y="1134" type="line"/>
      <point x="892" y="1134" type="line"/>
      <point x="892" y="649" type="line"/>
      <point x="901" y="636" type="line"/>
      <point x="901" y="400" type="line" smooth="yes"/>
      <point x="901" y="299"/>
      <point x="836" y="249"/>
      <point x="705" y="249" type="curve" smooth="yes"/>
      <point x="531" y="249"/>
      <point x="435" y="357"/>
      <point x="435" y="542" type="curve" smooth="yes"/>
      <point x="435" y="906" type="line"/>
      <point x="91" y="861" type="line"/>
      <point x="91" y="549" type="line" smooth="yes"/>
      <point x="91" y="182"/>
      <point x="322" y="-31"/>
    </contour>
    <contour>
      <point x="266" y="501" type="line"/>
      <point x="1070" y="501" type="line"/>
      <point x="1070" y="773" type="line"/>
      <point x="266" y="768" type="line"/>
    </contour>
    <contour>
      <point x="33" y="986" type="line"/>
      <point x="1261" y="986" type="line"/>
      <point x="1261" y="1242" type="line"/>
      <point x="33" y="1242" type="line"/>
    </contour>
    <component base="_cap.shiro_left"/>
    <component base="_cap.shiro_right" xOffset="1020"/>
  </outline>
</glyph>
<glyph name="Cha.gm" format="2">
  <advance width="1336"/>
  <unicode hex="0A1B"/>
  <anchor x="1280" y="100" name="bottom"/>
  <anchor x="1395" y="100" name="bottom1"/>
  <anchor x="1274" y="1200" name="top"/>
  <outline>
    <contour>
      <point x="675" y="-42" type="line"/>
      <point x="826" y="-42" type="line" smooth="yes"/>
      <point x="1148" y="-42"/>
      <point x="1277" y="57"/>
      <point x="1277" y="269" type="curve" smooth="yes"/>
      <point x="1277" y="273" type="line" smooth="yes"/>
      <point x="1277" y="475"/>
      <point x="1121" y="554"/>
      <point x="870" y="554" type="curve" smooth="yes"/>
      <point x="523" y="554" type="line" smooth="yes"/>
      <point x="480" y="554"/>
      <point x="451" y="574"/>
      <point x="451" y="606" type="curve" smooth="yes"/>
      <point x="451" y="640"/>
      <point x="480" y="658"/>
      <point x="523" y="658" type="curve" smooth="yes"/>
      <point x="1173" y="658" type="line"/>
      <point x="1173" y="1126" type="line"/>
      <point x="827" y="1126" type="line"/>
      <point x="827" y="885" type="line"/>
      <point x="385" y="885" type="line" smooth="yes"/>
      <point x="202" y="885"/>
      <point x="93" y="809"/>
      <point x="93" y="677" type="curve" smooth="yes"/>
      <point x="93" y="540"/>
      <point x="191" y="475"/>
      <point x="357" y="469" type="curve"/>
      <point x="357" y="459" type="line"/>
      <point x="573" y="330" type="line"/>
      <point x="861" y="330" type="line" smooth="yes"/>
      <point x="924" y="330"/>
      <point x="958" y="306"/>
      <point x="958" y="264" type="curve" smooth="yes"/>
      <point x="958" y="262" type="line" smooth="yes"/>
      <point x="958" y="219"/>
      <point x="920" y="197"/>
      <point x="858" y="197" type="curve" smooth="yes"/>
      <point x="675" y="197" type="line"/>
    </contour>
    <contour>
      <point x="559" y="-42" type="curve"/>
      <point x="691" y="-42" type="line"/>
      <point x="691" y="197" type="line"/>
      <point x="502" y="197" type="line" smooth="yes"/>
      <point x="439" y="197"/>
      <point x="403" y="219"/>
      <point x="403" y="262" type="curve" smooth="yes"/>
      <point x="403" y="264" type="line" smooth="yes"/>
      <point x="403" y="306"/>
      <point x="437" y="330"/>
      <point x="502" y="330" type="curve" smooth="yes"/>
      <point x="661" y="330" type="line"/>
      <point x="661" y="459" type="line"/>
      <point x="345" y="459" type="line" smooth="yes"/>
      <point x="197" y="459"/>
      <point x="77" y="382"/>
      <point x="77" y="237" type="curve" smooth="yes"/>
      <point x="77" y="234" type="line" smooth="yes"/>
      <point x="77" y="49"/>
      <point x="217" y="-42"/>
    </contour>
    <contour>
      <point x="585" y="73" type="line"/>
      <point x="777" y="73" type="line"/>
      <point x="777" y="457" type="line"/>
      <point x="585" y="457" type="line"/>
    </contour>
    <contour>
      <point x="80" y="986" type="line"/>
      <point x="989" y="994" type="line"/>
      <point x="995" y="986" type="line"/>
      <point x="1304" y="986" type="line"/>
      <point x="1304" y="1242" type="line"/>
      <point x="75" y="1242" type="line"/>
    </contour>
    <component base="_cap.shiro_left"/>
    <component base="_cap.shiro_right" xOffset="1019"/>
  </outline>
</glyph>
<glyph name="Ja.gm" format="2">
  <advance width="1305"/>
  <unicode hex="0A1C"/>
  <anchor x="1405" y="100" name="bottom"/>
  <anchor x="1375" y="100" name="bottom1"/>
  <anchor x="1298" y="1200" name="top"/>
  <outline>
    <contour>
      <point x="79" y="0" type="curve"/>
      <point x="430" y="0" type="line"/>
      <point x="453" y="145"/>
      <point x="467" y="333"/>
      <point x="467" y="508" type="curve" smooth="yes"/>
      <point x="467" y="642"/>
      <point x="459" y="780"/>
      <point x="445" y="892" type="curve"/>
      <point x="96" y="847" type="line"/>
      <point x="108" y="745"/>
      <point x="116" y="635"/>
      <point x="116" y="520" type="curve" smooth="yes"/>
      <point x="116" y="344"/>
      <point x="103" y="153"/>
    </contour>
    <contour>
      <point x="302" y="431" type="line"/>
      <point x="1032" y="431" type="line"/>
      <point x="1032" y="718" type="line"/>
      <point x="302" y="718" type="line"/>
    </contour>
    <contour>
      <point x="33" y="986" type="line"/>
      <point x="990" y="986" type="line"/>
      <point x="990" y="1242" type="line"/>
      <point x="33" y="1242" type="line"/>
    </contour>
    <component base="_danda" xOffset="676"/>
    <component base="_cap.shiro_left"/>
  </outline>
</glyph>
<glyph name="Jha.gm" format="2">
  <advance width="1299"/>
  <unicode hex="0A1D"/>
  <anchor x="1072" y="-25" name="bottom"/>
  <anchor x="1385" y="-15" name="bottom1"/>
  <anchor x="1323" y="1200" name="top"/>
  <outline>
    <contour>
      <point x="675" y="43" type="curve" smooth="yes"/>
      <point x="1050" y="43"/>
      <point x="1221" y="159"/>
      <point x="1221" y="393" type="curve" smooth="yes"/>
      <point x="1221" y="396" type="line" smooth="yes"/>
      <point x="1221" y="566"/>
      <point x="1120" y="690"/>
      <point x="922" y="713" type="curve"/>
      <point x="922" y="746" type="line"/>
      <point x="658" y="767" type="line"/>
      <point x="350" y="763" type="line"/>
      <point x="350" y="735" type="line"/>
      <point x="284" y="735"/>
      <point x="201" y="731"/>
      <point x="127" y="719" type="curve"/>
      <point x="105" y="450" type="line"/>
      <point x="337" y="474"/>
      <point x="436" y="484"/>
      <point x="616" y="484" type="curve" smooth="yes"/>
      <point x="815" y="484"/>
      <point x="867" y="461"/>
      <point x="867" y="401" type="curve" smooth="yes"/>
      <point x="867" y="399" type="line" smooth="yes"/>
      <point x="867" y="338"/>
      <point x="815" y="311"/>
      <point x="617" y="311" type="curve" smooth="yes"/>
      <point x="431" y="311"/>
      <point x="316" y="323"/>
      <point x="117" y="355" type="curve"/>
      <point x="136" y="100" type="line"/>
      <point x="326" y="68"/>
      <point x="480" y="43"/>
    </contour>
    <contour>
      <point x="470" y="-195" type="line"/>
      <point x="948" y="-195" type="line"/>
      <point x="853" y="-99"/>
      <point x="731" y="-16"/>
      <point x="628" y="39" type="curve"/>
      <point x="635" y="127" type="line"/>
      <point x="243" y="105" type="line"/>
    </contour>
    <contour>
      <point x="427" y="741" type="curve"/>
      <point x="657" y="767" type="line"/>
      <point x="542" y="767"/>
      <point x="485" y="818"/>
      <point x="485" y="925" type="curve" smooth="yes"/>
      <point x="485" y="1096" type="line"/>
      <point x="87" y="1096" type="line"/>
      <point x="91" y="954" type="line" smooth="yes"/>
      <point x="95" y="824"/>
      <point x="207" y="745"/>
    </contour>
    <contour>
      <point x="22" y="986" type="line"/>
      <point x="288" y="986" type="line"/>
      <point x="299" y="1002" type="line"/>
      <point x="1022" y="1002" type="line"/>
      <point x="1041" y="986" type="line"/>
      <point x="1231" y="986" type="line"/>
      <point x="1231" y="1242" type="line"/>
      <point x="22" y="1242" type="line"/>
    </contour>
    <contour>
      <point x="1221" y="960" type="curve" smooth="yes"/>
      <point x="1226" y="1096" type="line"/>
      <point x="828" y="1096" type="line"/>
      <point x="828" y="925" type="line" smooth="yes"/>
      <point x="828" y="818"/>
      <point x="768" y="767"/>
      <point x="655" y="767" type="curve"/>
      <point x="893" y="721" type="line"/>
      <point x="1148" y="725"/>
      <point x="1216" y="832"/>
    </contour>
    <component base="_cap.shiro_left"/>
    <component base="_cap.shiro_right" xOffset="982"/>
  </outline>
</glyph>
<glyph name="Nya.gm" format="2">
  <advance width="1328"/>
  <unicode hex="0A1E"/>
  <anchor x="1284" y="100" name="bottom"/>
  <anchor x="1450" y="90" name="bottom1"/>
  <anchor x="1313" y="1200" name="top"/>
  <outline>
    <contour>
      <point x="439" y="297" type="curve"/>
      <point x="1159" y="297" type="line"/>
      <point x="1159" y="525" type="line"/>
      <point x="488" y="525" type="line" smooth="yes"/>
      <point x="442" y="525"/>
      <point x="416" y="539"/>
      <point x="416" y="573" type="curve" smooth="yes"/>
      <point x="416" y="607"/>
      <point x="443" y="621"/>
      <point x="488" y="621" type="curve" smooth="yes"/>
      <point x="1211" y="621" type="line"/>
      <point x="1211" y="1103" type="line"/>
      <point x="871" y="1103" type="line"/>
      <point x="871" y="850" type="line"/>
      <point x="438" y="850" type="line" smooth="yes"/>
      <point x="202" y="850"/>
      <point x="59" y="754"/>
      <point x="59" y="574" type="curve" smooth="yes"/>
      <point x="59" y="394"/>
      <point x="196" y="297"/>
    </contour>
    <contour>
      <point x="974" y="-45" type="curve" smooth="yes"/>
      <point x="1052" y="-45"/>
      <point x="1135" y="-35"/>
      <point x="1204" y="-17" type="curve"/>
      <point x="1223" y="225" type="line"/>
      <point x="1153" y="207"/>
      <point x="1087" y="199"/>
      <point x="1022" y="199" type="curve" smooth="yes"/>
      <point x="849" y="199"/>
      <point x="738" y="239"/>
      <point x="719" y="386" type="curve"/>
      <point x="374" y="386" type="line"/>
      <point x="443" y="74"/>
      <point x="644" y="-45"/>
    </contour>
    <contour>
      <point x="337" y="684" type="curve"/>
      <point x="670" y="759" type="line"/>
      <point x="558" y="848"/>
      <point x="497" y="982"/>
      <point x="471" y="1161" type="curve"/>
      <point x="108" y="1166" type="line"/>
      <point x="125" y="984"/>
      <point x="205" y="828"/>
    </contour>
    <contour>
      <point x="86" y="986" type="line"/>
      <point x="325" y="986" type="line"/>
      <point x="345" y="999" type="line"/>
      <point x="1040" y="999" type="line"/>
      <point x="1059" y="986" type="line"/>
      <point x="1250" y="986" type="line"/>
      <point x="1250" y="1242" type="line"/>
      <point x="86" y="1242" type="line"/>
    </contour>
    <component base="_cap.shiro_left"/>
    <component base="_cap.shiro_right" xOffset="1011"/>
  </outline>
</glyph>
<glyph name="Tta.gm" format="2">
  <advance width="1179"/>
  <unicode hex="0A1F"/>
  <anchor x="1186" y="100" name="bottom"/>
  <anchor x="1332" y="100" name="bottom1"/>
  <anchor x="1161" y="1200" name="top"/>
  <outline>
    <contour>
      <point x="700" y="-30" type="curve" smooth="yes"/>
      <point x="873" y="-30"/>
      <point x="1000" y="1"/>
      <point x="1078" y="44" type="curve"/>
      <point x="1096" y="320" type="line"/>
      <point x="998" y="276"/>
      <point x="886" y="251"/>
      <point x="750" y="251" type="curve" smooth="yes"/>
      <point x="562" y="251"/>
      <point x="438" y="311"/>
      <point x="438" y="415" type="curve" smooth="yes"/>
      <point x="438" y="532" type="line"/>
      <point x="357" y="432" type="line"/>
      <point x="520" y="500"/>
      <point x="780" y="562"/>
      <point x="1059" y="589" type="curve"/>
      <point x="1059" y="1106" type="line"/>
      <point x="714" y="1106" type="line"/>
      <point x="714" y="755" type="line"/>
      <point x="829" y="836" type="line"/>
      <point x="604" y="821"/>
      <point x="310" y="742"/>
      <point x="90" y="652" type="curve"/>
      <point x="90" y="470" type="line" smooth="yes"/>
      <point x="90" y="176"/>
      <point x="292" y="-30"/>
    </contour>
    <contour>
      <point x="38" y="986" type="line"/>
      <point x="1104" y="986" type="line"/>
      <point x="1104" y="1242" type="line"/>
      <point x="38" y="1242" type="line"/>
    </contour>
    <component base="_cap.shiro_left"/>
    <component base="_cap.shiro_right" xOffset="872"/>
  </outline>
</glyph>
<glyph name="Ttha.gm" format="2">
  <advance width="1324"/>
  <unicode hex="0A20"/>
  <anchor x="1214" y="100" name="bottom"/>
  <anchor x="1372" y="100" name="bottom1"/>
  <anchor x="937" y="1200" name="top"/>
  <outline>
    <contour>
      <point x="663" y="-37" type="curve" smooth="yes"/>
      <point x="1048" y="-37"/>
      <point x="1241" y="124"/>
      <point x="1241" y="411" type="curve" smooth="yes"/>
      <point x="1241" y="427" type="line" smooth="yes"/>
      <point x="1241" y="674"/>
      <point x="1096" y="824"/>
      <point x="664" y="888" type="curve"/>
      <point x="246" y="830"/>
      <point x="85" y="674"/>
      <point x="85" y="427" type="curve" smooth="yes"/>
      <point x="85" y="410" type="line" smooth="yes"/>
      <point x="85" y="124"/>
      <point x="279" y="-37"/>
    </contour>
    <contour>
      <point x="664" y="245" type="curve" smooth="yes"/>
      <point x="523" y="245"/>
      <point x="434" y="308"/>
      <point x="434" y="417" type="curve" smooth="yes"/>
      <point x="434" y="423" type="line" smooth="yes"/>
      <point x="434" y="524"/>
      <point x="525" y="589"/>
      <point x="664" y="613" type="curve"/>
      <point x="817" y="589"/>
      <point x="894" y="523"/>
      <point x="894" y="423" type="curve" smooth="yes"/>
      <point x="894" y="418" type="line" smooth="yes"/>
      <point x="894" y="309"/>
      <point x="811" y="245"/>
    </contour>
    <contour>
      <point x="496" y="726" type="line"/>
      <point x="840" y="726" type="line"/>
      <point x="840" y="1132" type="line"/>
      <point x="496" y="1132" type="line"/>
    </contour>
    <contour>
      <point x="36" y="986" type="line"/>
      <point x="1272" y="986" type="line"/>
      <point x="1272" y="1242" type="line"/>
      <point x="36" y="1242" type="line"/>
    </contour>
    <component base="_cap.shiro_left"/>
    <component base="_cap.shiro_right" xOffset="1006"/>
  </outline>
</glyph>
<glyph name="Dda.gm" format="2">
  <advance width="1287"/>
  <unicode hex="0A21"/>
  <anchor x="1220" y="100" name="bottom"/>
  <anchor x="1350" y="100" name="bottom1"/>
  <anchor x="1273" y="1200" name="top"/>
  <outline>
    <contour>
      <point x="587" y="-37" type="curve" smooth="yes"/>
      <point x="977" y="-37"/>
      <point x="1200" y="99"/>
      <point x="1200" y="383" type="curve" smooth="yes"/>
      <point x="1200" y="400" type="line" smooth="yes"/>
      <point x="1200" y="598"/>
      <point x="1091" y="738"/>
      <point x="828" y="738" type="curve"/>
      <point x="928" y="649" type="line"/>
      <point x="928" y="739" type="line"/>
      <point x="1062" y="743"/>
      <point x="1172" y="843"/>
      <point x="1172" y="1001" type="curve" smooth="yes"/>
      <point x="1172" y="1126" type="line"/>
      <point x="818" y="1126" type="line"/>
      <point x="818" y="990" type="line" smooth="yes"/>
      <point x="818" y="910"/>
      <point x="783" y="871"/>
      <point x="691" y="871" type="curve" smooth="yes"/>
      <point x="199" y="871" type="line"/>
      <point x="199" y="619" type="line"/>
      <point x="676" y="619" type="line" smooth="yes"/>
      <point x="791" y="617"/>
      <point x="855" y="542"/>
      <point x="855" y="419" type="curve" smooth="yes"/>
      <point x="855" y="405" type="line" smooth="yes"/>
      <point x="855" y="273"/>
      <point x="781" y="216"/>
      <point x="572" y="216" type="curve" smooth="yes"/>
      <point x="448" y="216"/>
      <point x="417" y="237"/>
      <point x="417" y="263" type="curve" smooth="yes"/>
      <point x="417" y="265" type="line" smooth="yes"/>
      <point x="417" y="296"/>
      <point x="450" y="313"/>
      <point x="572" y="313" type="curve" smooth="yes"/>
      <point x="663" y="313"/>
      <point x="754" y="294"/>
      <point x="815" y="190" type="curve"/>
      <point x="842" y="202" type="line"/>
      <point x="828" y="435"/>
      <point x="718" y="523"/>
      <point x="447" y="523" type="curve" smooth="yes"/>
      <point x="176" y="523"/>
      <point x="75" y="432"/>
      <point x="75" y="269" type="curve" smooth="yes"/>
      <point x="75" y="259" type="line" smooth="yes"/>
      <point x="75" y="89"/>
      <point x="221" y="-37"/>
    </contour>
    <contour>
      <point x="80" y="986" type="line"/>
      <point x="906" y="993" type="line"/>
      <point x="921" y="986" type="line"/>
      <point x="1260" y="986" type="line"/>
      <point x="1270" y="1242" type="line"/>
      <point x="69" y="1242" type="line"/>
    </contour>
    <component base="_cap.shiro_left"/>
    <component base="_cap.shiro_right" xOffset="970"/>
  </outline>
</glyph>
<glyph name="Ddha.gm" format="2">
  <advance width="1300"/>
  <unicode hex="0A22"/>
  <anchor x="1250" y="100" name="bottom"/>
  <anchor x="1430" y="100" name="bottom1"/>
  <anchor x="1274" y="1200" name="top"/>
  <outline>
    <contour>
      <point x="760" y="-45" type="curve" smooth="yes"/>
      <point x="1087" y="-45"/>
      <point x="1242" y="75"/>
      <point x="1242" y="254" type="curve" smooth="yes"/>
      <point x="1242" y="261" type="line" smooth="yes"/>
      <point x="1242" y="420"/>
      <point x="1140" y="520"/>
      <point x="881" y="520" type="curve" smooth="yes"/>
      <point x="630" y="520"/>
      <point x="513" y="438"/>
      <point x="503" y="170" type="curve"/>
      <point x="534" y="164" type="line"/>
      <point x="550" y="285"/>
      <point x="653" y="312"/>
      <point x="757" y="312" type="curve" smooth="yes"/>
      <point x="858" y="312"/>
      <point x="897" y="294"/>
      <point x="897" y="263" type="curve" smooth="yes"/>
      <point x="897" y="261" type="line" smooth="yes"/>
      <point x="897" y="232"/>
      <point x="856" y="215"/>
      <point x="757" y="215" type="curve" smooth="yes"/>
      <point x="569" y="215"/>
      <point x="435" y="314"/>
      <point x="435" y="542" type="curve"/>
      <point x="435" y="924" type="line"/>
      <point x="87" y="879" type="line"/>
      <point x="87" y="583" type="line"/>
      <point x="87" y="171"/>
      <point x="363" y="-45"/>
    </contour>
    <contour>
      <point x="264" y="585" type="line"/>
      <point x="1172" y="585" type="line"/>
      <point x="1172" y="1129" type="line"/>
      <point x="825" y="1129" type="line"/>
      <point x="825" y="824" type="line"/>
      <point x="264" y="824" type="line"/>
    </contour>
    <contour>
      <point x="36" y="986" type="line"/>
      <point x="1227" y="986" type="line"/>
      <point x="1227" y="1242" type="line"/>
      <point x="36" y="1242" type="line"/>
    </contour>
    <component base="_cap.shiro_left"/>
    <component base="_cap.shiro_right" xOffset="983"/>
  </outline>
</glyph>
<glyph name="Nna.gm" format="2">
  <advance width="1256"/>
  <unicode hex="0A23"/>
  <anchor x="1245" y="100" name="bottom"/>
  <anchor x="1395" y="100" name="bottom1"/>
  <anchor x="1249" y="1200" name="top"/>
  <outline>
    <contour>
      <point x="729" y="-40" type="curve" smooth="yes"/>
      <point x="905" y="-40"/>
      <point x="1046" y="-12"/>
      <point x="1143" y="28" type="curve"/>
      <point x="1162" y="302" type="line"/>
      <point x="1055" y="262"/>
      <point x="925" y="233"/>
      <point x="767" y="233" type="curve" smooth="yes"/>
      <point x="518" y="233"/>
      <point x="410" y="288"/>
      <point x="410" y="383" type="curve" smooth="yes"/>
      <point x="410" y="426" type="line"/>
      <point x="303" y="306" type="line"/>
      <point x="491" y="347"/>
      <point x="704" y="376"/>
      <point x="885" y="395" type="curve"/>
      <point x="885" y="749" type="line"/>
      <point x="568" y="750" type="line"/>
      <point x="568" y="583" type="line"/>
      <point x="403" y="563"/>
      <point x="219" y="530"/>
      <point x="76" y="490" type="curve"/>
      <point x="76" y="401" type="line" smooth="yes"/>
      <point x="76" y="124"/>
      <point x="292" y="-40"/>
    </contour>
    <contour>
      <point x="1032" y="587" type="curve" smooth="yes"/>
      <point x="1143" y="587" type="line"/>
      <point x="1143" y="849" type="line"/>
      <point x="1035" y="849" type="line" smooth="yes"/>
      <point x="702" y="849"/>
      <point x="579" y="913"/>
      <point x="579" y="1071" type="curve" smooth="yes"/>
      <point x="579" y="1142" type="line"/>
      <point x="193" y="1142" type="line"/>
      <point x="193" y="1081" type="line" smooth="yes"/>
      <point x="193" y="774"/>
      <point x="419" y="587"/>
    </contour>
    <contour>
      <point x="22" y="986" type="line"/>
      <point x="1186" y="986" type="line"/>
      <point x="1193" y="1242" type="line"/>
      <point x="22" y="1242" type="line"/>
    </contour>
    <component base="_cap.shiro_left"/>
    <component base="_cap.shiro_right" xOffset="938"/>
  </outline>
</glyph>
<glyph name="Ta.gm" format="2">
  <advance width="1168"/>
  <unicode hex="0A24"/>
  <anchor x="1054" y="100" name="bottom"/>
  <anchor x="1281" y="100" name="bottom1"/>
  <anchor x="1165" y="1200" name="top"/>
  <outline>
    <contour>
      <point x="63" y="986" type="line"/>
      <point x="1108" y="986" type="line"/>
      <point x="1108" y="1242" type="line"/>
      <point x="63" y="1242" type="line"/>
    </contour>
    <contour>
      <point x="513" y="-18" type="curve" smooth="yes"/>
      <point x="918" y="-18"/>
      <point x="1097" y="111"/>
      <point x="1097" y="345" type="curve" smooth="yes"/>
      <point x="1097" y="356" type="line" smooth="yes"/>
      <point x="1097" y="537"/>
      <point x="970" y="638"/>
      <point x="734" y="640" type="curve"/>
      <point x="802" y="562" type="line"/>
      <point x="802" y="646" type="line"/>
      <point x="971" y="658"/>
      <point x="1064" y="748"/>
      <point x="1064" y="930" type="curve" smooth="yes"/>
      <point x="1064" y="1119" type="line"/>
      <point x="707" y="1119" type="line"/>
      <point x="707" y="941" type="line" smooth="yes"/>
      <point x="707" y="838"/>
      <point x="668" y="778"/>
      <point x="549" y="778" type="curve" smooth="yes"/>
      <point x="161" y="778" type="line"/>
      <point x="161" y="495" type="line"/>
      <point x="562" y="495" type="line" smooth="yes"/>
      <point x="697" y="495"/>
      <point x="746" y="456"/>
      <point x="746" y="387" type="curve" smooth="yes"/>
      <point x="746" y="380" type="line" smooth="yes"/>
      <point x="746" y="302"/>
      <point x="663" y="261"/>
      <point x="486" y="261" type="curve" smooth="yes"/>
      <point x="332" y="261"/>
      <point x="174" y="295"/>
      <point x="73" y="330" type="curve"/>
      <point x="92" y="51" type="line"/>
      <point x="188" y="15"/>
      <point x="337" y="-18"/>
    </contour>
    <component base="_cap.shiro_left"/>
    <component base="_cap.shiro_right" xOffset="851"/>
  </outline>
</glyph>
<glyph name="Tha.gm" format="2">
  <advance width="1389"/>
  <unicode hex="0A25"/>
  <anchor x="1489" y="100" name="bottom"/>
  <anchor x="1415" y="100" name="bottom1"/>
  <anchor x="1382" y="1200" name="top"/>
  <outline>
    <contour>
      <point x="332" y="593" type="line"/>
      <point x="1107" y="593" type="line"/>
      <point x="1107" y="854" type="line"/>
      <point x="323" y="854" type="line"/>
    </contour>
    <contour>
      <point x="278" y="986" type="line"/>
      <point x="334" y="986" type="line"/>
      <point x="347" y="1005" type="line"/>
      <point x="1111" y="1005" type="line"/>
      <point x="1126" y="986" type="line"/>
      <point x="1191" y="986" type="line"/>
      <point x="1191" y="1242" type="line"/>
      <point x="278" y="1242" type="line"/>
    </contour>
    <contour>
      <point x="636" y="135" type="curve" smooth="yes"/>
      <point x="731" y="135"/>
      <point x="818" y="152"/>
      <point x="864" y="171" type="curve"/>
      <point x="930" y="381" type="line"/>
      <point x="954" y="381" type="line"/>
      <point x="943" y="472" type="line"/>
      <point x="898" y="443"/>
      <point x="807" y="419"/>
      <point x="704" y="419" type="curve" smooth="yes"/>
      <point x="582" y="419"/>
      <point x="475" y="452"/>
      <point x="405" y="522" type="curve"/>
      <point x="433" y="443" type="line"/>
      <point x="474" y="592"/>
      <point x="496" y="749"/>
      <point x="496" y="935" type="curve" smooth="yes"/>
      <point x="496" y="1031"/>
      <point x="490" y="1134"/>
      <point x="479" y="1242" type="curve"/>
      <point x="36" y="1242" type="line"/>
      <point x="36" y="986" type="line"/>
      <point x="138" y="986" type="line"/>
      <point x="142" y="941"/>
      <point x="143" y="896"/>
      <point x="143" y="852" type="curve" smooth="yes"/>
      <point x="143" y="680"/>
      <point x="113" y="515"/>
      <point x="60" y="395" type="curve"/>
      <point x="174" y="226"/>
      <point x="366" y="135"/>
    </contour>
    <component base="_danda" xOffset="760"/>
    <component base="_cap.shiro_left"/>
  </outline>
</glyph>
<glyph name="Da.gm" format="2">
  <advance width="1253"/>
  <unicode hex="0A26"/>
  <anchor x="1241" y="100" name="bottom"/>
  <anchor x="1391" y="100" name="bottom1"/>
  <anchor x="1239" y="1200" name="top"/>
  <outline>
    <contour>
      <point x="768" y="-32" type="curve" smooth="yes"/>
      <point x="922" y="-32"/>
      <point x="1060" y="-7"/>
      <point x="1155" y="37" type="curve"/>
      <point x="1173" y="316" type="line"/>
      <point x="1065" y="272"/>
      <point x="933" y="247"/>
      <point x="797" y="247" type="curve" smooth="yes"/>
      <point x="568" y="247"/>
      <point x="439" y="339"/>
      <point x="439" y="525" type="curve" smooth="yes"/>
      <point x="439" y="603" type="line"/>
      <point x="434" y="627" type="line"/>
      <point x="434" y="871" type="line"/>
      <point x="91" y="826" type="line"/>
      <point x="91" y="565" type="line" smooth="yes"/>
      <point x="91" y="166"/>
      <point x="319" y="-32"/>
    </contour>
    <contour>
      <point x="273" y="452" type="line"/>
      <point x="1137" y="452" type="line"/>
      <point x="1137" y="1126" type="line"/>
      <point x="795" y="1126" type="line"/>
      <point x="795" y="728" type="line"/>
      <point x="273" y="728" type="line"/>
    </contour>
    <contour>
      <point x="22" y="986" type="line"/>
      <point x="1206" y="986" type="line"/>
      <point x="1206" y="1242" type="line"/>
      <point x="22" y="1242" type="line"/>
    </contour>
    <component base="_cap.shiro_left"/>
    <component base="_cap.shiro_right" xOffset="935"/>
  </outline>
</glyph>
<glyph name="Dha.gm" format="2">
  <advance width="1322"/>
  <unicode hex="0A27"/>
  <anchor x="1422" y="100" name="bottom"/>
  <anchor x="1408" y="100" name="bottom1"/>
  <anchor x="1315" y="1200" name="top"/>
  <outline>
    <contour>
      <point x="320" y="986" type="line"/>
      <point x="1079" y="986" type="line"/>
      <point x="1079" y="1242" type="line"/>
      <point x="313" y="1242" type="line"/>
    </contour>
    <contour>
      <point x="606" y="140" type="curve" smooth="yes"/>
      <point x="685" y="140"/>
      <point x="747" y="156"/>
      <point x="793" y="174" type="curve"/>
      <point x="860" y="386" type="line"/>
      <point x="884" y="386" type="line"/>
      <point x="875" y="477" type="line"/>
      <point x="830" y="448"/>
      <point x="761" y="424"/>
      <point x="674" y="424" type="curve" smooth="yes"/>
      <point x="564" y="424"/>
      <point x="468" y="457"/>
      <point x="405" y="527" type="curve"/>
      <point x="433" y="443" type="line"/>
      <point x="474" y="592"/>
      <point x="496" y="749"/>
      <point x="496" y="935" type="curve" smooth="yes"/>
      <point x="496" y="1031"/>
      <point x="490" y="1134"/>
      <point x="479" y="1242" type="curve"/>
      <point x="36" y="1242" type="line"/>
      <point x="36" y="986" type="line"/>
      <point x="138" y="986" type="line"/>
      <point x="142" y="941"/>
      <point x="143" y="896"/>
      <point x="143" y="852" type="curve" smooth="yes"/>
      <point x="143" y="682"/>
      <point x="113" y="520"/>
      <point x="60" y="400" type="curve"/>
      <point x="168" y="231"/>
      <point x="355" y="140"/>
    </contour>
    <component base="_danda" xOffset="693"/>
    <component base="_cap.shiro_left"/>
  </outline>
</glyph>
<glyph name="Na.gm" format="2">
  <advance width="1331"/>
  <unicode hex="0A28"/>
  <anchor x="1351" y="75" name="bottom"/>
  <anchor x="1387" y="100" name="bottom1"/>
  <anchor x="937" y="1200" name="top"/>
  <outline>
    <contour>
      <point x="178" y="0" type="curve"/>
      <point x="523" y="0" type="line"/>
      <point x="522" y="14" type="line"/>
      <point x="470" y="113"/>
      <point x="441" y="218"/>
      <point x="441" y="321" type="curve" smooth="yes"/>
      <point x="441" y="343" type="line" smooth="yes"/>
      <point x="441" y="469"/>
      <point x="512" y="551"/>
      <point x="668" y="601" type="curve"/>
      <point x="820" y="546"/>
      <point x="891" y="469"/>
      <point x="891" y="343" type="curve" smooth="yes"/>
      <point x="891" y="321" type="line" smooth="yes"/>
      <point x="891" y="223"/>
      <point x="863" y="119"/>
      <point x="809" y="15" type="curve"/>
      <point x="807" y="0" type="line"/>
      <point x="1152" y="0" type="line"/>
      <point x="1209" y="86"/>
      <point x="1245" y="204"/>
      <point x="1245" y="337" type="curve" smooth="yes"/>
      <point x="1245" y="361" type="line" smooth="yes"/>
      <point x="1245" y="634"/>
      <point x="1069" y="811"/>
      <point x="667" y="874" type="curve"/>
      <point x="265" y="811"/>
      <point x="87" y="634"/>
      <point x="87" y="361" type="curve" smooth="yes"/>
      <point x="87" y="337" type="line" smooth="yes"/>
      <point x="87" y="203"/>
      <point x="122" y="85"/>
    </contour>
    <contour>
      <point x="498" y="700" type="line"/>
      <point x="842" y="700" type="line"/>
      <point x="842" y="1105" type="line"/>
      <point x="498" y="1105" type="line"/>
    </contour>
    <contour>
      <point x="57" y="986" type="line"/>
      <point x="1281" y="986" type="line"/>
      <point x="1281" y="1242" type="line"/>
      <point x="57" y="1242" type="line"/>
    </contour>
    <component base="_cap.shiro_left"/>
    <component base="_cap.shiro_right" xOffset="1014"/>
  </outline>
</glyph>
<glyph name="Pa.gm" format="2">
  <advance width="1311"/>
  <unicode hex="0A2A"/>
  <anchor x="1411" y="100" name="bottom"/>
  <anchor x="1383" y="100" name="bottom1"/>
  <anchor x="1295" y="1200" name="top"/>
  <outline>
    <contour>
      <point x="606" y="150" type="curve" smooth="yes"/>
      <point x="677" y="150"/>
      <point x="739" y="164"/>
      <point x="782" y="180" type="curve"/>
      <point x="850" y="396" type="line"/>
      <point x="874" y="396" type="line"/>
      <point x="865" y="487" type="line"/>
      <point x="820" y="458"/>
      <point x="757" y="434"/>
      <point x="674" y="434" type="curve" smooth="yes"/>
      <point x="564" y="434"/>
      <point x="468" y="467"/>
      <point x="405" y="537" type="curve"/>
      <point x="433" y="443" type="line"/>
      <point x="474" y="592"/>
      <point x="496" y="749"/>
      <point x="496" y="935" type="curve" smooth="yes"/>
      <point x="496" y="1031"/>
      <point x="490" y="1134"/>
      <point x="479" y="1242" type="curve"/>
      <point x="36" y="1242" type="line"/>
      <point x="36" y="986" type="line"/>
      <point x="138" y="986" type="line"/>
      <point x="142" y="941"/>
      <point x="143" y="896"/>
      <point x="143" y="852" type="curve" smooth="yes"/>
      <point x="143" y="686"/>
      <point x="113" y="527"/>
      <point x="60" y="410" type="curve"/>
      <point x="168" y="241"/>
      <point x="355" y="150"/>
    </contour>
    <component base="_danda" xOffset="682"/>
    <component base="_cap.shiro_left"/>
  </outline>
</glyph>
<glyph name="Pha.gm" format="2">
  <advance width="1286"/>
  <unicode hex="0A2B"/>
  <anchor x="1270" y="100" name="bottom"/>
  <anchor x="1404" y="100" name="bottom1"/>
  <anchor x="1249" y="1200" name="top"/>
  <outline>
    <contour>
      <point x="724" y="-37" type="curve" smooth="yes"/>
      <point x="1065" y="-37"/>
      <point x="1227" y="85"/>
      <point x="1227" y="270" type="curve" smooth="yes"/>
      <point x="1227" y="277" type="line" smooth="yes"/>
      <point x="1227" y="446"/>
      <point x="1116" y="544"/>
      <point x="854" y="544" type="curve" smooth="yes"/>
      <point x="597" y="544"/>
      <point x="508" y="443"/>
      <point x="491" y="216" type="curve"/>
      <point x="526" y="205" type="line"/>
      <point x="559" y="284"/>
      <point x="636" y="327"/>
      <point x="748" y="327" type="curve" smooth="yes"/>
      <point x="846" y="327"/>
      <point x="882" y="310"/>
      <point x="882" y="274" type="curve" smooth="yes"/>
      <point x="882" y="272" type="line" smooth="yes"/>
      <point x="882" y="242"/>
      <point x="839" y="223"/>
      <point x="737" y="223" type="curve" smooth="yes"/>
      <point x="541" y="223"/>
      <point x="434" y="319"/>
      <point x="434" y="467" type="curve"/>
      <point x="434" y="481" type="line"/>
      <point x="434" y="585"/>
      <point x="497" y="635"/>
      <point x="608" y="635" type="curve" smooth="yes"/>
      <point x="1147" y="635" type="line"/>
      <point x="1147" y="1134" type="line"/>
      <point x="803" y="1134" type="line"/>
      <point x="803" y="873" type="line"/>
      <point x="506" y="873" type="line"/>
      <point x="236" y="873"/>
      <point x="82" y="736"/>
      <point x="82" y="492" type="curve"/>
      <point x="82" y="466" type="line" smooth="yes"/>
      <point x="82" y="162"/>
      <point x="335" y="-37"/>
    </contour>
    <contour>
      <point x="61" y="986" type="line"/>
      <point x="913" y="993" type="line"/>
      <point x="924" y="986" type="line"/>
      <point x="1264" y="986" type="line"/>
      <point x="1264" y="1242" type="line"/>
      <point x="61" y="1242" type="line"/>
    </contour>
    <component base="_cap.shiro_left"/>
    <component base="_cap.shiro_right" xOffset="970"/>
  </outline>
</glyph>
<glyph name="Ba.gm" format="2">
  <advance width="1387"/>
  <unicode hex="0A2C"/>
  <anchor x="1487" y="100" name="bottom"/>
  <anchor x="1475" y="100" name="bottom1"/>
  <anchor x="1380" y="1200" name="top"/>
  <outline>
    <contour>
      <point x="624" y="86" type="curve" smooth="yes"/>
      <point x="733" y="86"/>
      <point x="817" y="109"/>
      <point x="869" y="135" type="curve"/>
      <point x="925" y="316" type="line"/>
      <point x="954" y="316" type="line"/>
      <point x="937" y="408" type="line"/>
      <point x="893" y="387"/>
      <point x="810" y="366"/>
      <point x="711" y="366" type="curve" smooth="yes"/>
      <point x="528" y="366"/>
      <point x="444" y="414"/>
      <point x="441" y="525" type="curve" smooth="yes"/>
      <point x="440" y="557" type="line"/>
      <point x="386" y="459" type="line"/>
      <point x="577" y="521"/>
      <point x="851" y="571"/>
      <point x="1054" y="589" type="curve"/>
      <point x="1054" y="844" type="line"/>
      <point x="853" y="819"/>
      <point x="641" y="792"/>
      <point x="481" y="753" type="curve"/>
      <point x="481" y="746" type="line"/>
      <point x="343" y="722"/>
      <point x="205" y="684"/>
      <point x="91" y="649" type="curve"/>
      <point x="91" y="549" type="line" smooth="yes"/>
      <point x="91" y="244"/>
      <point x="304" y="86"/>
    </contour>
    <contour>
      <point x="663" y="747" type="curve"/>
      <point x="771" y="768" type="line"/>
      <point x="554" y="775"/>
      <point x="519" y="867"/>
      <point x="519" y="972" type="curve" smooth="yes"/>
      <point x="519" y="1127" type="line"/>
      <point x="112" y="1127" type="line"/>
      <point x="112" y="1004" type="line" smooth="yes"/>
      <point x="112" y="828"/>
      <point x="205" y="747"/>
    </contour>
    <contour>
      <point x="51" y="986" type="line"/>
      <point x="319" y="986" type="line"/>
      <point x="341" y="1002" type="line"/>
      <point x="1069" y="1002" type="line"/>
      <point x="1100" y="986" type="line"/>
      <point x="1135" y="986" type="line"/>
      <point x="1128" y="1242" type="line"/>
      <point x="45" y="1242" type="line"/>
    </contour>
    <component base="_danda" xOffset="758"/>
    <component base="_cap.shiro_left"/>
  </outline>
</glyph>
<glyph name="Bha.gm" format="2">
  <advance width="1243"/>
  <unicode hex="0A2D"/>
  <anchor x="1109" y="100" name="bottom"/>
  <anchor x="1310" y="100" name="bottom1"/>
  <anchor x="1273" y="1200" name="top"/>
  <outline>
    <contour>
      <point x="543" y="-29" type="curve" smooth="yes"/>
      <point x="955" y="-29"/>
      <point x="1170" y="97"/>
      <point x="1170" y="337" type="curve" smooth="yes"/>
      <point x="1170" y="342" type="line" smooth="yes"/>
      <point x="1170" y="489"/>
      <point x="1084" y="600"/>
      <point x="930" y="649" type="curve"/>
      <point x="890" y="700" type="line"/>
      <point x="796" y="829"/>
      <point x="658" y="901"/>
      <point x="457" y="901" type="curve" smooth="yes"/>
      <point x="237" y="901"/>
      <point x="104" y="809"/>
      <point x="104" y="640" type="curve" smooth="yes"/>
      <point x="104" y="628" type="line" smooth="yes"/>
      <point x="104" y="460"/>
      <point x="243" y="363"/>
      <point x="463" y="363" type="curve" smooth="yes"/>
      <point x="684" y="363"/>
      <point x="813" y="435"/>
      <point x="893" y="540" type="curve"/>
      <point x="980" y="590" type="line"/>
      <point x="980" y="635" type="line"/>
      <point x="1089" y="696"/>
      <point x="1172" y="798"/>
      <point x="1172" y="964" type="curve" smooth="yes"/>
      <point x="1172" y="1110" type="line"/>
      <point x="811" y="1110" type="line"/>
      <point x="811" y="979" type="line" smooth="yes"/>
      <point x="811" y="853"/>
      <point x="763" y="786"/>
      <point x="717" y="730" type="curve"/>
      <point x="764" y="694" type="line"/>
      <point x="700" y="596"/>
      <point x="626" y="578"/>
      <point x="539" y="578" type="curve" smooth="yes"/>
      <point x="469" y="578"/>
      <point x="433" y="596"/>
      <point x="433" y="627" type="curve" smooth="yes"/>
      <point x="433" y="630" type="line" smooth="yes"/>
      <point x="433" y="662"/>
      <point x="468" y="681"/>
      <point x="539" y="681" type="curve" smooth="yes"/>
      <point x="635" y="681"/>
      <point x="693" y="644"/>
      <point x="764" y="566" type="curve"/>
      <point x="751" y="547" type="line"/>
      <point x="783" y="513"/>
      <point x="811" y="472"/>
      <point x="811" y="412" type="curve" smooth="yes"/>
      <point x="811" y="407" type="line" smooth="yes"/>
      <point x="811" y="306"/>
      <point x="716" y="240"/>
      <point x="510" y="240" type="curve" smooth="yes"/>
      <point x="350" y="240"/>
      <point x="202" y="271"/>
      <point x="87" y="316" type="curve"/>
      <point x="105" y="37" type="line"/>
      <point x="214" y="-1"/>
      <point x="367" y="-29"/>
    </contour>
    <contour>
      <point x="75" y="986" type="line"/>
      <point x="1228" y="986" type="line"/>
      <point x="1228" y="1242" type="line"/>
      <point x="75" y="1242" type="line"/>
    </contour>
    <component base="_cap.shiro_left"/>
    <component base="_cap.shiro_right" xOffset="925"/>
  </outline>
</glyph>
<glyph name="Ya.gm" format="2">
  <advance width="1661"/>
  <unicode hex="0A2F"/>
  <anchor x="1761" y="100" name="bottom"/>
  <anchor x="1552" y="100" name="bottom1"/>
  <anchor x="1654" y="1200" name="top"/>
  <outline>
    <contour>
      <point x="628" y="93" type="curve" smooth="yes"/>
      <point x="775" y="93"/>
      <point x="902" y="116"/>
      <point x="1002" y="159" type="curve"/>
      <point x="1002" y="525" type="line"/>
      <point x="1377" y="525" type="line"/>
      <point x="1377" y="807" type="line"/>
      <point x="663" y="807" type="line"/>
      <point x="663" y="304" type="line"/>
      <point x="755" y="396" type="line"/>
      <point x="708" y="379"/>
      <point x="659" y="368"/>
      <point x="610" y="368" type="curve" smooth="yes"/>
      <point x="535" y="368"/>
      <point x="473" y="390"/>
      <point x="431" y="432" type="curve"/>
      <point x="473" y="545"/>
      <point x="497" y="685"/>
      <point x="497" y="854" type="curve" smooth="yes"/>
      <point x="497" y="917"/>
      <point x="494" y="991"/>
      <point x="485" y="1087" type="curve"/>
      <point x="130" y="1087" type="line"/>
      <point x="142" y="990"/>
      <point x="145" y="910"/>
      <point x="145" y="845" type="curve" smooth="yes"/>
      <point x="145" y="650"/>
      <point x="117" y="485"/>
      <point x="60" y="348" type="curve"/>
      <point x="166" y="181"/>
      <point x="361" y="93"/>
    </contour>
    <contour>
      <point x="43" y="986" type="line"/>
      <point x="1316" y="986" type="line"/>
      <point x="1316" y="1242" type="line"/>
      <point x="43" y="1242" type="line"/>
    </contour>
    <component base="_danda" xOffset="1032"/>
    <component base="_cap.shiro_left"/>
  </outline>
</glyph>
<glyph name="Ra.gm" format="2">
  <advance width="1313"/>
  <unicode hex="0A30"/>
  <anchor x="1249" y="100" name="bottom"/>
  <anchor x="1387" y="100" name="bottom1"/>
  <anchor x="1307" y="1200" name="top"/>
  <outline>
    <contour>
      <point x="680" y="-32" type="curve" smooth="yes"/>
      <point x="1022" y="-32"/>
      <point x="1206" y="122"/>
      <point x="1206" y="389" type="curve" smooth="yes"/>
      <point x="1206" y="1023" type="line"/>
      <point x="863" y="1023" type="line"/>
      <point x="863" y="698" type="line"/>
      <point x="866" y="667" type="line"/>
      <point x="866" y="396" type="line" smooth="yes"/>
      <point x="866" y="308"/>
      <point x="814" y="249"/>
      <point x="682" y="249" type="curve" smooth="yes"/>
      <point x="523" y="249"/>
      <point x="434" y="324"/>
      <point x="434" y="422" type="curve" smooth="yes"/>
      <point x="434" y="429" type="line" smooth="yes"/>
      <point x="434" y="515"/>
      <point x="494" y="550"/>
      <point x="578" y="550" type="curve" smooth="yes"/>
      <point x="1025" y="550" type="line"/>
      <point x="1025" y="826" type="line"/>
      <point x="532" y="826" type="line" smooth="yes"/>
      <point x="246" y="826"/>
      <point x="81" y="686"/>
      <point x="81" y="432" type="curve" smooth="yes"/>
      <point x="81" y="425" type="line" smooth="yes"/>
      <point x="81" y="188"/>
      <point x="276" y="-32"/>
    </contour>
    <contour>
      <point x="51" y="986" type="line"/>
      <point x="1260" y="986" type="line"/>
      <point x="1260" y="1242" type="line"/>
      <point x="51" y="1242" type="line"/>
    </contour>
    <component base="_cap.shiro_left"/>
    <component base="_cap.shiro_right" xOffset="996"/>
  </outline>
</glyph>
<glyph name="La.gm" format="2">
  <advance width="1513"/>
  <unicode hex="0A32"/>
  <anchor x="1544" y="100" name="bottom"/>
  <anchor x="1483" y="100" name="bottom1"/>
  <anchor x="1420" y="1200" name="top"/>
  <outline>
    <contour>
      <point x="759" y="303" type="curve"/>
      <point x="1004" y="429"/>
      <point x="1283" y="737"/>
      <point x="1314" y="1092" type="curve"/>
      <point x="1318" y="1124" type="line"/>
      <point x="969" y="1124" type="line"/>
      <point x="958" y="1057" type="line"/>
      <point x="930" y="887"/>
      <point x="862" y="745"/>
      <point x="759" y="642" type="curve"/>
      <point x="655" y="737"/>
      <point x="585" y="880"/>
      <point x="555" y="1057" type="curve"/>
      <point x="544" y="1124" type="line"/>
      <point x="195" y="1124" type="line"/>
      <point x="199" y="1092" type="line"/>
      <point x="231" y="730"/>
      <point x="492" y="429"/>
    </contour>
    <contour>
      <point x="194" y="0" type="curve"/>
      <point x="535" y="0" type="line"/>
      <point x="545" y="12" type="line"/>
      <point x="466" y="118"/>
      <point x="436" y="204"/>
      <point x="436" y="325" type="curve" smooth="yes"/>
      <point x="436" y="336" type="line" smooth="yes"/>
      <point x="436" y="414"/>
      <point x="465" y="484"/>
      <point x="527" y="524" type="curve"/>
      <point x="419" y="808" type="line"/>
      <point x="190" y="745"/>
      <point x="85" y="580"/>
      <point x="85" y="357" type="curve" smooth="yes"/>
      <point x="85" y="345" type="line" smooth="yes"/>
      <point x="85" y="201"/>
      <point x="124" y="85"/>
    </contour>
    <contour>
      <point x="1322" y="0" type="line"/>
      <point x="1399" y="88"/>
      <point x="1428" y="201"/>
      <point x="1428" y="333" type="curve" smooth="yes"/>
      <point x="1428" y="350" type="line" smooth="yes"/>
      <point x="1428" y="586"/>
      <point x="1318" y="745"/>
      <point x="1088" y="808" type="curve"/>
      <point x="980" y="524" type="line"/>
      <point x="1047" y="484"/>
      <point x="1078" y="414"/>
      <point x="1078" y="336" type="curve" smooth="yes"/>
      <point x="1078" y="325" type="line" smooth="yes"/>
      <point x="1078" y="191"/>
      <point x="1045" y="107"/>
      <point x="971" y="12" type="curve"/>
      <point x="982" y="0" type="line"/>
    </contour>
    <contour>
      <point x="27" y="986" type="line"/>
      <point x="1460" y="986" type="line"/>
      <point x="1460" y="1242" type="line"/>
      <point x="27" y="1242" type="line"/>
    </contour>
    <component base="_cap.shiro_left"/>
    <component base="_cap.shiro_right" xOffset="1196"/>
  </outline>
</glyph>
<glyph name="Va.gm" format="2">
  <advance width="1307"/>
  <unicode hex="0A35"/>
  <anchor x="1275" y="100" name="bottom"/>
  <anchor x="1425" y="90" name="bottom1"/>
  <anchor x="1300" y="1200" name="top"/>
  <outline>
    <contour>
      <point x="448" y="312" type="curve"/>
      <point x="1144" y="312" type="line"/>
      <point x="1144" y="541" type="line"/>
      <point x="497" y="541" type="line" smooth="yes"/>
      <point x="443" y="541"/>
      <point x="414" y="556"/>
      <point x="414" y="595" type="curve" smooth="yes"/>
      <point x="414" y="633"/>
      <point x="444" y="648"/>
      <point x="498" y="648" type="curve" smooth="yes"/>
      <point x="1199" y="648" type="line"/>
      <point x="1199" y="1113" type="line"/>
      <point x="854" y="1113" type="line"/>
      <point x="854" y="878" type="line"/>
      <point x="444" y="878" type="line" smooth="yes"/>
      <point x="198" y="878"/>
      <point x="58" y="785"/>
      <point x="58" y="595" type="curve" smooth="yes"/>
      <point x="58" y="405"/>
      <point x="200" y="312"/>
    </contour>
    <contour>
      <point x="967" y="-45" type="curve" smooth="yes"/>
      <point x="1059" y="-45"/>
      <point x="1122" y="-35"/>
      <point x="1192" y="-17" type="curve"/>
      <point x="1211" y="225" type="line"/>
      <point x="1143" y="207"/>
      <point x="1081" y="199"/>
      <point x="1014" y="199" type="curve" smooth="yes"/>
      <point x="847" y="199"/>
      <point x="735" y="239"/>
      <point x="716" y="386" type="curve"/>
      <point x="371" y="386" type="line"/>
      <point x="440" y="74"/>
      <point x="641" y="-45"/>
    </contour>
    <contour>
      <point x="73" y="986" type="line"/>
      <point x="958" y="994" type="line"/>
      <point x="981" y="986" type="line"/>
      <point x="1269" y="986" type="line"/>
      <point x="1269" y="1242" type="line"/>
      <point x="73" y="1242" type="line"/>
    </contour>
    <component base="_cap.shiro_left"/>
    <component base="_cap.shiro_right" xOffset="990"/>
  </outline>
</glyph>
<glyph name="Sha.gm" format="2">
  <advance width="1305"/>
  <unicode hex="0A36"/>
  <anchor x="1406" y="100" name="bottom"/>
  <anchor x="1372" y="100" name="bottom1"/>
  <anchor x="1299" y="1200" name="top"/>
  <outline>
    <contour>
      <point x="89" y="69" type="curve"/>
      <point x="444" y="69" type="line"/>
      <point x="470" y="225"/>
      <point x="484" y="414"/>
      <point x="484" y="608" type="curve" smooth="yes"/>
      <point x="484" y="826"/>
      <point x="470" y="1051"/>
      <point x="441" y="1242" type="curve"/>
      <point x="-1" y="1242" type="line"/>
      <point x="-1" y="985" type="line"/>
      <point x="119" y="985" type="line"/>
      <point x="131" y="864"/>
      <point x="136" y="752"/>
      <point x="136" y="628" type="curve" smooth="yes"/>
      <point x="136" y="434"/>
      <point x="121" y="237"/>
    </contour>
    <contour>
      <point x="341" y="347" type="line"/>
      <point x="1044" y="347" type="line"/>
      <point x="1044" y="641" type="line"/>
      <point x="341" y="641" type="line"/>
    </contour>
    <contour>
      <point x="861" y="0" type="line"/>
      <point x="1198" y="0" type="line"/>
      <point x="1198" y="986" type="line"/>
      <point x="1262" y="986" type="line"/>
      <point x="1262" y="1242" type="line"/>
      <point x="856" y="1242" type="line"/>
      <point x="856" y="515" type="line"/>
      <point x="861" y="481" type="line"/>
    </contour>
    <contour>
      <point x="306" y="986" type="line"/>
      <point x="1087" y="986" type="line"/>
      <point x="1075" y="1242" type="line"/>
      <point x="299" y="1242" type="line"/>
    </contour>
    <contour>
      <point x="661" y="-13" type="curve" smooth="yes"/>
      <point x="748" y="-13"/>
      <point x="793" y="37"/>
      <point x="793" y="123" type="curve" smooth="yes"/>
      <point x="793" y="133" type="line" smooth="yes"/>
      <point x="793" y="218"/>
      <point x="748" y="270"/>
      <point x="661" y="270" type="curve" smooth="yes"/>
      <point x="574" y="270"/>
      <point x="530" y="217"/>
      <point x="530" y="133" type="curve" smooth="yes"/>
      <point x="530" y="123" type="line" smooth="yes"/>
      <point x="530" y="37"/>
      <point x="574" y="-13"/>
    </contour>
    <component base="_cap.shiro_right" xOffset="988"/>
    <component base="_cap.shiro_left"/>
  </outline>
</glyph>
<glyph name="Sa.gm" format="2">
  <advance width="1283"/>
  <unicode hex="0A38"/>
  <anchor x="1383" y="100" name="bottom"/>
  <anchor x="1362" y="100" name="bottom1"/>
  <anchor x="1276" y="1200" name="top"/>
  <outline>
    <contour>
      <point x="89" y="70" type="curve"/>
      <point x="444" y="70" type="line"/>
      <point x="470" y="225"/>
      <point x="484" y="414"/>
      <point x="484" y="608" type="curve" smooth="yes"/>
      <point x="484" y="825"/>
      <point x="471" y="1048"/>
      <point x="441" y="1242" type="curve"/>
      <point x="35" y="1242" type="line"/>
      <point x="35" y="985" type="line"/>
      <point x="119" y="985" type="line"/>
      <point x="130" y="874"/>
      <point x="136" y="752"/>
      <point x="136" y="628" type="curve" smooth="yes"/>
      <point x="136" y="434"/>
      <point x="121" y="237"/>
    </contour>
    <contour>
      <point x="312" y="342" type="line"/>
      <point x="985" y="342" type="line"/>
      <point x="985" y="636" type="line"/>
      <point x="312" y="636" type="line"/>
    </contour>
    <contour>
      <point x="214" y="986" type="line"/>
      <point x="1039" y="986" type="line"/>
      <point x="1039" y="1242" type="line"/>
      <point x="214" y="1242" type="line"/>
    </contour>
    <component base="_cap.shiro_left"/>
    <component base="_danda" xOffset="654"/>
  </outline>
</glyph>
<glyph name="Ha.gm" format="2">
  <advance width="1302"/>
  <unicode hex="0A39"/>
  <anchor x="1254" y="100" name="bottom"/>
  <anchor x="1393" y="100" name="bottom1"/>
  <anchor x="1296" y="1200" name="top"/>
  <outline>
    <contour>
      <point x="675" y="-32" type="curve" smooth="yes"/>
      <point x="1013" y="-32"/>
      <point x="1195" y="129"/>
      <point x="1195" y="409" type="curve" smooth="yes"/>
      <point x="1195" y="1123" type="line"/>
      <point x="853" y="1123" type="line"/>
      <point x="853" y="416" type="line" smooth="yes"/>
      <point x="853" y="315"/>
      <point x="802" y="249"/>
      <point x="674" y="249" type="curve" smooth="yes"/>
      <point x="511" y="249"/>
      <point x="426" y="325"/>
      <point x="426" y="422" type="curve" smooth="yes"/>
      <point x="426" y="424" type="line" smooth="yes"/>
      <point x="426" y="498"/>
      <point x="469" y="551"/>
      <point x="560" y="551" type="curve" smooth="yes"/>
      <point x="674" y="551" type="line"/>
      <point x="717" y="827" type="line"/>
      <point x="514" y="827" type="line" smooth="yes"/>
      <point x="224" y="827"/>
      <point x="73" y="693"/>
      <point x="73" y="440" type="curve" smooth="yes"/>
      <point x="73" y="433" type="line" smooth="yes"/>
      <point x="73" y="189"/>
      <point x="267" y="-32"/>
    </contour>
    <contour>
      <point x="40" y="986" type="line"/>
      <point x="1247" y="986" type="line"/>
      <point x="1247" y="1242" type="line"/>
      <point x="40" y="1242" type="line"/>
    </contour>
    <component base="_cap.shiro_left"/>
    <component base="_cap.shiro_right" xOffset="984"/>
  </outline>
</glyph>
<glyph name="Nukta.gm" format="2">
  <unicode hex="0A3C"/>
  <outline>
    <contour>
      <point x="-373" y="-344" type="curve" smooth="yes"/>
      <point x="-276" y="-344"/>
      <point x="-226" y="-290"/>
      <point x="-226" y="-199" type="curve" smooth="yes"/>
      <point x="-226" y="-187" type="line" smooth="yes"/>
      <point x="-226" y="-97"/>
      <point x="-276" y="-42"/>
      <point x="-373" y="-42" type="curve" smooth="yes"/>
      <point x="-470" y="-42"/>
      <point x="-520" y="-98"/>
      <point x="-520" y="-187" type="curve" smooth="yes"/>
      <point x="-520" y="-199" type="line" smooth="yes"/>
      <point x="-520" y="-290"/>
      <point x="-470" y="-344"/>
    </contour>
  </outline>
</glyph>
<glyph name="MatraU.gm" format="2">
  <unicode hex="0A41"/>
  <anchor x="700" y="100" name="_bottom1"/>
  <outline>
    <contour>
      <point x="-20" y="-418" type="curve" smooth="yes"/>
      <point x="143" y="-418"/>
      <point x="306" y="-393"/>
      <point x="425" y="-351" type="curve"/>
      <point x="444" y="-101" type="line"/>
      <point x="318" y="-142"/>
      <point x="155" y="-167"/>
      <point x="-7" y="-167" type="curve" smooth="yes"/>
      <point x="-168" y="-167"/>
      <point x="-337" y="-143"/>
      <point x="-472" y="-100" type="curve"/>
      <point x="-453" y="-351" type="line"/>
      <point x="-333" y="-394"/>
      <point x="-181" y="-418"/>
    </contour>
  </outline>
</glyph>
<glyph name="MatraUu.gm" format="2">
  <unicode hex="0A42"/>
  <anchor x="700" y="100" name="_bottom1"/>
  <outline>
    <contour>
      <point x="-19" y="-330" type="curve" smooth="yes"/>
      <point x="151" y="-330"/>
      <point x="314" y="-306"/>
      <point x="426" y="-265" type="curve"/>
      <point x="442" y="-73" type="line"/>
      <point x="326" y="-111"/>
      <point x="163" y="-137"/>
      <point x="-10" y="-137" type="curve" smooth="yes"/>
      <point x="-182" y="-137"/>
      <point x="-349" y="-112"/>
      <point x="-472" y="-72" type="curve"/>
      <point x="-456" y="-265" type="line"/>
      <point x="-341" y="-307"/>
      <point x="-187" y="-330"/>
    </contour>
    <contour>
      <point x="-21" y="-604" type="curve" smooth="yes"/>
      <point x="149" y="-604"/>
      <point x="312" y="-580"/>
      <point x="424" y="-539" type="curve"/>
      <point x="440" y="-347" type="line"/>
      <point x="324" y="-385"/>
      <point x="161" y="-411"/>
      <point x="-12" y="-411" type="curve" smooth="yes"/>
      <point x="-184" y="-411"/>
      <point x="-351" y="-386"/>
      <point x="-474" y="-346" type="curve"/>
      <point x="-458" y="-539" type="line"/>
      <point x="-343" y="-581"/>
      <point x="-189" y="-604"/>
    </contour>
  </outline>
</glyph>
<glyph name="MatraAi.gm" format="2">
  <unicode hex="0A48"/>
  <anchor x="494" y="1200" name="_top"/>
  <anchor x="852" y="1398" name="top1"/>
  <outline>
    <contour>
      <point x="254" y="1207" type="line"/>
      <point x="378" y="1207" type="line"/>
      <point x="362" y="1379" type="line" smooth="yes"/>
      <point x="327" y="1754"/>
      <point x="181" y="1912"/>
      <point x="-231" y="1912" type="curve" smooth="yes"/>
      <point x="-291" y="1912"/>
      <point x="-357" y="1911"/>
      <point x="-456" y="1897" type="curve"/>
      <point x="-475" y="1659" type="line"/>
      <point x="-395" y="1672"/>
      <point x="-293" y="1679"/>
      <point x="-223" y="1679" type="curve" smooth="yes"/>
      <point x="75" y="1679"/>
      <point x="191" y="1574"/>
      <point x="237" y="1419" type="curve"/>
      <point x="219" y="1413" type="line"/>
    </contour>
    <contour>
      <point x="197" y="1207" type="line"/>
      <point x="273" y="1207" type="line"/>
      <point x="269" y="1269" type="line" smooth="yes"/>
      <point x="255" y="1488"/>
      <point x="87" y="1588"/>
      <point x="-192" y="1588" type="curve" smooth="yes"/>
      <point x="-249" y="1588"/>
      <point x="-314" y="1584"/>
      <point x="-372" y="1575" type="curve"/>
      <point x="-391" y="1343" type="line"/>
      <point x="-292" y="1356"/>
      <point x="-237" y="1360"/>
      <point x="-156" y="1360" type="curve" smooth="yes"/>
      <point x="68" y="1360"/>
      <point x="187" y="1325"/>
      <point x="195" y="1231" type="curve" smooth="yes"/>
    </contour>
  </outline>
</glyph>
<glyph name="MatraOo.gm" format="2">
  <unicode hex="0A4B"/>
  <anchor x="500" y="1200" name="_top"/>
  <anchor x="797" y="1389" name="top1"/>
  <outline>
    <contour>
      <point x="208" y="1229" type="curve"/>
      <point x="374" y="1229" type="line"/>
      <point x="381" y="1293"/>
      <point x="385" y="1352"/>
      <point x="385" y="1404" type="curve" smooth="yes"/>
      <point x="385" y="1609"/>
      <point x="271" y="1681"/>
      <point x="16" y="1693" type="curve" smooth="yes"/>
      <point x="-90" y="1698" type="line" smooth="yes"/>
      <point x="-210" y="1704"/>
      <point x="-261" y="1746"/>
      <point x="-272" y="1848" type="curve"/>
      <point x="-443" y="1848" type="line"/>
      <point x="-443" y="1695" type="line" smooth="yes"/>
      <point x="-443" y="1511"/>
      <point x="-357" y="1404"/>
      <point x="-127" y="1394" type="curve" smooth="yes"/>
      <point x="-16" y="1389" type="line" smooth="yes"/>
      <point x="137" y="1382"/>
      <point x="196" y="1345"/>
    </contour>
  </outline>
</glyph>
<glyph name="MatraAu.gm" format="2">
  <unicode hex="0A4C"/>
  <anchor x="500" y="1200" name="_top"/>
  <anchor x="1002" y="1459" name="top1"/>
  <outline>
    <contour>
      <point x="-33" y="1357" type="curve"/>
      <point x="141" y="1357" type="line"/>
      <point x="134" y="1378"/>
      <point x="130" y="1400"/>
      <point x="130" y="1425" type="curve"/>
      <point x="130" y="1489"/>
      <point x="167" y="1524"/>
      <point x="230" y="1524" type="curve"/>
      <point x="293" y="1524"/>
      <point x="329" y="1489"/>
      <point x="329" y="1425" type="curve"/>
      <point x="329" y="1400"/>
      <point x="325" y="1378"/>
      <point x="318" y="1357" type="curve"/>
      <point x="492" y="1357" type="line"/>
      <point x="533" y="1402"/>
      <point x="556" y="1460"/>
      <point x="556" y="1531" type="curve" smooth="yes"/>
      <point x="556" y="1677"/>
      <point x="439" y="1780"/>
      <point x="226" y="1780" type="curve"/>
      <point x="127" y="1780"/>
      <point x="41" y="1747"/>
      <point x="-10" y="1688" type="curve"/>
      <point x="5" y="1648" type="line"/>
      <point x="-67" y="1614"/>
      <point x="-94" y="1556"/>
      <point x="-94" y="1500" type="curve"/>
      <point x="-94" y="1445"/>
      <point x="-73" y="1400"/>
    </contour>
    <contour>
      <point x="-213" y="1530" type="curve" smooth="yes"/>
      <point x="-147" y="1530"/>
      <point x="-106" y="1554"/>
      <point x="-76" y="1587" type="curve"/>
      <point x="-65" y="1579" type="line"/>
      <point x="223" y="1583" type="line"/>
      <point x="226" y="1780" type="line"/>
      <point x="-55" y="1780" type="line"/>
      <point x="-176" y="1780"/>
      <point x="-231" y="1805"/>
      <point x="-249" y="1914" type="curve"/>
      <point x="-402" y="1914" type="line"/>
      <point x="-397" y="1751" type="line" smooth="yes"/>
      <point x="-393" y="1610"/>
      <point x="-330" y="1530"/>
    </contour>
  </outline>
</glyph>
<glyph name="Virama.gm" format="2">
  <unicode hex="0A4D"/>
  <anchor x="700" y="100" name="_bottom"/>
  <outline>
    <contour>
      <point x="464" y="-528" type="line"/>
      <point x="773" y="-530" type="line"/>
      <point x="513" y="-134" type="line"/>
      <point x="165" y="-134" type="line"/>
    </contour>
  </outline>
</glyph>
<glyph name="Udaat.gm" format="2">
  <unicode hex="0A51"/>
  <anchor x="700" y="100" name="_bottom"/>
  <anchor x="600" y="320" name="bottom1"/>
  <outline>
    <contour>
      <point x="718" y="-545" type="curve"/>
      <point x="718" y="-305" type="line"/>
      <point x="559" y="-305"/>
      <point x="492" y="-247"/>
      <point x="492" y="-133" type="curve"/>
      <point x="150" y="-133" type="line"/>
      <point x="150" y="-406"/>
      <point x="322" y="-545"/>
    </contour>
  </outline>
</glyph>
<glyph name="Za.gm" format="2">
  <advance width="1350"/>
  <unicode hex="0A5B"/>
  <anchor x="1450" y="100" name="bottom"/>
  <anchor x="1397" y="100" name="bottom1"/>
  <anchor x="1343" y="1200" name="top"/>
  <outline>
    <contour>
      <point x="79" y="0" type="curve"/>
      <point x="428" y="0" type="line"/>
      <point x="452" y="144"/>
      <point x="465" y="324"/>
      <point x="465" y="498" type="curve" smooth="yes"/>
      <point x="465" y="632"/>
      <point x="458" y="770"/>
      <point x="443" y="882" type="curve"/>
      <point x="96" y="837" type="line"/>
      <point x="108" y="735"/>
      <point x="116" y="625"/>
      <point x="116" y="510" type="curve" smooth="yes"/>
      <point x="116" y="335"/>
      <point x="103" y="150"/>
    </contour>
    <contour>
      <point x="282" y="423" type="line"/>
      <point x="1062" y="423" type="line"/>
      <point x="1062" y="713" type="line"/>
      <point x="282" y="713" type="line"/>
    </contour>
    <contour>
      <point x="32" y="986" type="line"/>
      <point x="1151" y="986" type="line"/>
      <point x="1151" y="1242" type="line"/>
      <point x="32" y="1242" type="line"/>
    </contour>
    <contour>
      <point x="681" y="-3" type="curve" smooth="yes"/>
      <point x="768" y="-3"/>
      <point x="813" y="47"/>
      <point x="813" y="133" type="curve" smooth="yes"/>
      <point x="813" y="143" type="line" smooth="yes"/>
      <point x="813" y="228"/>
      <point x="768" y="280"/>
      <point x="681" y="280" type="curve" smooth="yes"/>
      <point x="594" y="280"/>
      <point x="550" y="227"/>
      <point x="550" y="143" type="curve" smooth="yes"/>
      <point x="550" y="133" type="line" smooth="yes"/>
      <point x="550" y="47"/>
      <point x="594" y="-3"/>
    </contour>
    <component base="_danda" xOffset="721"/>
    <component base="_cap.shiro_left"/>
  </outline>
</glyph>
<glyph name="Rra.gm" format="2">
  <advance width="1159"/>
  <unicode hex="0A5C"/>
  <anchor x="1060" y="5" name="bottom"/>
  <anchor x="1360" y="-25" name="bottom1"/>
  <anchor x="1153" y="1200" name="top"/>
  <outline>
    <contour>
      <point x="510" y="12" type="curve" smooth="yes"/>
      <point x="911" y="12"/>
      <point x="1080" y="152"/>
      <point x="1080" y="351" type="curve" smooth="yes"/>
      <point x="1080" y="391" type="line" smooth="yes"/>
      <point x="1080" y="561"/>
      <point x="958" y="662"/>
      <point x="722" y="666" type="curve"/>
      <point x="789" y="586" type="line"/>
      <point x="789" y="670" type="line"/>
      <point x="954" y="680"/>
      <point x="1051" y="796"/>
      <point x="1051" y="940" type="curve" smooth="yes"/>
      <point x="1051" y="1120" type="line"/>
      <point x="695" y="1120" type="line"/>
      <point x="695" y="960" type="line" smooth="yes"/>
      <point x="695" y="861"/>
      <point x="642" y="796"/>
      <point x="536" y="796" type="curve" smooth="yes"/>
      <point x="140" y="796" type="line"/>
      <point x="140" y="518" type="line"/>
      <point x="550" y="518" type="line" smooth="yes"/>
      <point x="684" y="518"/>
      <point x="728" y="475"/>
      <point x="728" y="409" type="curve" smooth="yes"/>
      <point x="728" y="393" type="line" smooth="yes"/>
      <point x="728" y="324"/>
      <point x="661" y="281"/>
      <point x="459" y="281" type="curve" smooth="yes"/>
      <point x="317" y="281"/>
      <point x="156" y="315"/>
      <point x="63" y="350" type="curve"/>
      <point x="81" y="98" type="line"/>
      <point x="171" y="62"/>
      <point x="321" y="12"/>
    </contour>
    <contour>
      <point x="252" y="-178" type="line"/>
      <point x="601" y="-178" type="line"/>
      <point x="381" y="110" type="line"/>
      <point x="81" y="98" type="line"/>
    </contour>
    <contour>
      <point x="837" y="-178" type="line"/>
      <point x="1186" y="-178" type="line"/>
      <point x="925" y="161" type="line"/>
      <point x="609" y="123" type="line"/>
    </contour>
    <contour>
      <point x="35" y="986" type="line"/>
      <point x="1118" y="986" type="line"/>
      <point x="1110" y="1242" type="line"/>
      <point x="35" y="1242" type="line"/>
    </contour>
    <component base="_cap.shiro_left"/>
    <component base="_cap.shiro_right" xOffset="841"/>
  </outline>
</glyph>
<glyph name="zero.gm" format="2">
  <advance width="1208"/>
  <unicode hex="0A66"/>
  <outline>
    <contour>
      <point x="605" y="103" type="curve" smooth="yes"/>
      <point x="949" y="103"/>
      <point x="1143" y="295"/>
      <point x="1143" y="589" type="curve" smooth="yes"/>
      <point x="1143" y="621" type="line" smooth="yes"/>
      <point x="1143" y="923"/>
      <point x="946" y="1107"/>
      <point x="602" y="1107" type="curve" smooth="yes"/>
      <point x="258" y="1107"/>
      <point x="65" y="923"/>
      <point x="65" y="621" type="curve" smooth="yes"/>
      <point x="65" y="589" type="line" smooth="yes"/>
      <point x="65" y="295"/>
      <point x="261" y="103"/>
    </contour>
    <contour>
      <point x="604" y="394" type="curve" smooth="yes"/>
      <point x="484" y="394"/>
      <point x="421" y="460"/>
      <point x="421" y="598" type="curve" smooth="yes"/>
      <point x="421" y="616" type="line" smooth="yes"/>
      <point x="421" y="755"/>
      <point x="484" y="816"/>
      <point x="604" y="816" type="curve" smooth="yes"/>
      <point x="724" y="816"/>
      <point x="787" y="755"/>
      <point x="787" y="615" type="curve" smooth="yes"/>
      <point x="787" y="597" type="line" smooth="yes"/>
      <point x="787" y="460"/>
      <point x="724" y="394"/>
    </contour>
  </outline>
</glyph>
<glyph name="one.gm" format="2">
  <advance width="1160"/>
  <unicode hex="0A67"/>
  <outline>
    <contour>
      <point x="736" y="0" type="line"/>
      <point x="1080" y="0" type="line"/>
      <point x="1080" y="827" type="line" smooth="yes"/>
      <point x="1080" y="1108"/>
      <point x="899" y="1267"/>
      <point x="573" y="1267" type="curve" smooth="yes"/>
      <point x="247" y="1267"/>
      <point x="65" y="1110"/>
      <point x="65" y="823" type="curve" smooth="yes"/>
      <point x="65" y="821" type="line" smooth="yes"/>
      <point x="65" y="539"/>
      <point x="224" y="418"/>
      <point x="494" y="418" type="curve" smooth="yes"/>
      <point x="565" y="418"/>
      <point x="620" y="426"/>
      <point x="656" y="438" type="curve"/>
      <point x="728" y="674" type="line"/>
      <point x="749" y="674" type="line"/>
      <point x="738" y="754" type="line"/>
      <point x="707" y="720"/>
      <point x="663" y="696"/>
      <point x="576" y="696" type="curve" smooth="yes"/>
      <point x="472" y="696"/>
      <point x="418" y="743"/>
      <point x="418" y="833" type="curve" smooth="yes"/>
      <point x="418" y="835" type="line" smooth="yes"/>
      <point x="418" y="932"/>
      <point x="471" y="982"/>
      <point x="573" y="982" type="curve" smooth="yes"/>
      <point x="675" y="982"/>
      <point x="736" y="931"/>
      <point x="736" y="844" type="curve" smooth="yes"/>
    </contour>
  </outline>
</glyph>
<glyph name="two.gm" format="2">
  <advance width="1071"/>
  <unicode hex="0A68"/>
  <outline>
    <contour>
      <point x="443" y="331" type="curve" smooth="yes"/>
      <point x="821" y="331"/>
      <point x="1006" y="493"/>
      <point x="1006" y="776" type="curve" smooth="yes"/>
      <point x="1006" y="784" type="line" smooth="yes"/>
      <point x="1006" y="1103"/>
      <point x="815" y="1267"/>
      <point x="456" y="1267" type="curve" smooth="yes"/>
      <point x="327" y="1267"/>
      <point x="189" y="1239"/>
      <point x="84" y="1192" type="curve"/>
      <point x="84" y="904" type="line"/>
      <point x="190" y="948"/>
      <point x="316" y="974"/>
      <point x="423" y="974" type="curve" smooth="yes"/>
      <point x="571" y="974"/>
      <point x="650" y="912"/>
      <point x="650" y="798" type="curve" smooth="yes"/>
      <point x="650" y="792" type="line" smooth="yes"/>
      <point x="650" y="687"/>
      <point x="558" y="625"/>
      <point x="382" y="625" type="curve" smooth="yes"/>
      <point x="287" y="625"/>
      <point x="198" y="632"/>
      <point x="76" y="652" type="curve"/>
      <point x="96" y="371" type="line"/>
      <point x="220" y="349"/>
      <point x="351" y="331"/>
    </contour>
    <contour>
      <point x="489" y="1" type="line"/>
      <point x="959" y="1" type="line"/>
      <point x="834" y="128"/>
      <point x="705" y="232"/>
      <point x="536" y="327" type="curve"/>
      <point x="536" y="505" type="line"/>
      <point x="160" y="387" type="line"/>
    </contour>
  </outline>
</glyph>
<glyph name="three.gm" format="2">
  <advance width="1104"/>
  <unicode hex="0A69"/>
  <outline>
    <contour>
      <point x="543" y="45" type="curve" smooth="yes"/>
      <point x="895" y="45"/>
      <point x="1039" y="168"/>
      <point x="1039" y="369" type="curve" smooth="yes"/>
      <point x="1039" y="371" type="line" smooth="yes"/>
      <point x="1039" y="549"/>
      <point x="935" y="661"/>
      <point x="649" y="664" type="curve"/>
      <point x="761" y="579" type="line"/>
      <point x="761" y="665" type="line"/>
      <point x="939" y="673"/>
      <point x="1021" y="771"/>
      <point x="1021" y="933" type="curve" smooth="yes"/>
      <point x="1021" y="938" type="line" smooth="yes"/>
      <point x="1021" y="1134"/>
      <point x="858" y="1267"/>
      <point x="507" y="1267" type="curve" smooth="yes"/>
      <point x="386" y="1267"/>
      <point x="218" y="1241"/>
      <point x="100" y="1196" type="curve"/>
      <point x="100" y="936" type="line"/>
      <point x="216" y="974"/>
      <point x="374" y="993"/>
      <point x="468" y="993" type="curve" smooth="yes"/>
      <point x="594" y="993"/>
      <point x="665" y="965"/>
      <point x="665" y="898" type="curve" smooth="yes"/>
      <point x="665" y="896" type="line" smooth="yes"/>
      <point x="665" y="828"/>
      <point x="619" y="790"/>
      <point x="515" y="790" type="curve" smooth="yes"/>
      <point x="164" y="790" type="line"/>
      <point x="164" y="523" type="line"/>
      <point x="515" y="523" type="line" smooth="yes"/>
      <point x="630" y="523"/>
      <point x="683" y="484"/>
      <point x="683" y="415" type="curve" smooth="yes"/>
      <point x="683" y="412" type="line" smooth="yes"/>
      <point x="683" y="351"/>
      <point x="627" y="316"/>
      <point x="479" y="316" type="curve" smooth="yes"/>
      <point x="347" y="316"/>
      <point x="174" y="336"/>
      <point x="65" y="370" type="curve"/>
      <point x="83" y="110" type="line"/>
      <point x="229" y="67"/>
      <point x="408" y="45"/>
    </contour>
    <contour>
      <point x="386" y="-185" type="line"/>
      <point x="852" y="-185" type="line"/>
      <point x="756" y="-89"/>
      <point x="649" y="-18"/>
      <point x="547" y="37" type="curve"/>
      <point x="547" y="221" type="line"/>
      <point x="131" y="161" type="line"/>
    </contour>
  </outline>
</glyph>
<glyph name="four.gm" format="2">
  <advance width="1210"/>
  <unicode hex="0A6A"/>
  <outline>
    <contour>
      <point x="606" y="-30" type="curve" smooth="yes"/>
      <point x="923" y="-30"/>
      <point x="1134" y="98"/>
      <point x="1134" y="347" type="curve" smooth="yes"/>
      <point x="1134" y="359" type="line" smooth="yes"/>
      <point x="1134" y="514"/>
      <point x="1036" y="632"/>
      <point x="867" y="660" type="curve"/>
      <point x="867" y="668" type="line"/>
      <point x="1048" y="703"/>
      <point x="1140" y="817"/>
      <point x="1140" y="979" type="curve" smooth="yes"/>
      <point x="1140" y="1078"/>
      <point x="1132" y="1160"/>
      <point x="1113" y="1242" type="curve"/>
      <point x="759" y="1242" type="line"/>
      <point x="775" y="1155"/>
      <point x="784" y="1075"/>
      <point x="784" y="981" type="curve" smooth="yes"/>
      <point x="784" y="877"/>
      <point x="720" y="819"/>
      <point x="606" y="819" type="curve" smooth="yes"/>
      <point x="490" y="819"/>
      <point x="426" y="877"/>
      <point x="426" y="981" type="curve" smooth="yes"/>
      <point x="426" y="1075"/>
      <point x="435" y="1156"/>
      <point x="451" y="1242" type="curve"/>
      <point x="97" y="1242" type="line"/>
      <point x="78" y="1160"/>
      <point x="70" y="1071"/>
      <point x="70" y="979" type="curve" smooth="yes"/>
      <point x="70" y="815"/>
      <point x="163" y="703"/>
      <point x="340" y="666" type="curve"/>
      <point x="340" y="659" type="line"/>
      <point x="169" y="630"/>
      <point x="78" y="520"/>
      <point x="78" y="357" type="curve" smooth="yes"/>
      <point x="78" y="347" type="line" smooth="yes"/>
      <point x="78" y="98"/>
      <point x="294" y="-30"/>
    </contour>
    <contour>
      <point x="606" y="251" type="curve" smooth="yes"/>
      <point x="494" y="251"/>
      <point x="433" y="300"/>
      <point x="433" y="396" type="curve" smooth="yes"/>
      <point x="433" y="400" type="line" smooth="yes"/>
      <point x="433" y="481"/>
      <point x="477" y="543"/>
      <point x="603" y="543" type="curve" smooth="yes"/>
      <point x="730" y="543"/>
      <point x="778" y="481"/>
      <point x="778" y="398" type="curve" smooth="yes"/>
      <point x="778" y="395" type="line" smooth="yes"/>
      <point x="778" y="300"/>
      <point x="718" y="251"/>
    </contour>
  </outline>
</glyph>
<glyph name="five.gm" format="2">
  <advance width="1263"/>
  <unicode hex="0A6B"/>
  <outline>
    <contour>
      <point x="562" y="151" type="curve" smooth="yes"/>
      <point x="639" y="151"/>
      <point x="705" y="161"/>
      <point x="756" y="176" type="curve"/>
      <point x="831" y="397" type="line"/>
      <point x="850" y="397" type="line"/>
      <point x="842" y="483" type="line"/>
      <point x="800" y="455"/>
      <point x="730" y="435"/>
      <point x="648" y="435" type="curve" smooth="yes"/>
      <point x="563" y="435"/>
      <point x="493" y="459"/>
      <point x="446" y="505" type="curve"/>
      <point x="477" y="618"/>
      <point x="494" y="792"/>
      <point x="494" y="965" type="curve" smooth="yes"/>
      <point x="494" y="1060"/>
      <point x="489" y="1154"/>
      <point x="480" y="1242" type="curve"/>
      <point x="125" y="1242" type="line"/>
      <point x="134" y="1156"/>
      <point x="138" y="1065"/>
      <point x="138" y="973" type="curve" smooth="yes"/>
      <point x="138" y="722"/>
      <point x="116" y="576"/>
      <point x="58" y="411" type="curve"/>
      <point x="151" y="235"/>
      <point x="346" y="151"/>
    </contour>
    <contour>
      <point x="839" y="0" type="line"/>
      <point x="1183" y="0" type="line"/>
      <point x="1183" y="1242" type="line"/>
      <point x="839" y="1242" type="line"/>
    </contour>
  </outline>
</glyph>
<glyph name="six.gm" format="2">
  <advance width="1115"/>
  <unicode hex="0A6C"/>
  <outline>
    <contour>
      <point x="633" y="-26" type="curve" smooth="yes"/>
      <point x="762" y="-26"/>
      <point x="910" y="-2"/>
      <point x="1031" y="50" type="curve"/>
      <point x="1049" y="318" type="line"/>
      <point x="952" y="274"/>
      <point x="795" y="248"/>
      <point x="678" y="248" type="curve" smooth="yes"/>
      <point x="482" y="248"/>
      <point x="420" y="291"/>
      <point x="420" y="361" type="curve" smooth="yes"/>
      <point x="420" y="366" type="line" smooth="yes"/>
      <point x="420" y="440"/>
      <point x="473" y="481"/>
      <point x="592" y="481" type="curve" smooth="yes"/>
      <point x="950" y="481" type="line"/>
      <point x="950" y="744" type="line"/>
      <point x="599" y="744" type="line" smooth="yes"/>
      <point x="489" y="744"/>
      <point x="439" y="781"/>
      <point x="439" y="847" type="curve" smooth="yes"/>
      <point x="439" y="850" type="line" smooth="yes"/>
      <point x="439" y="927"/>
      <point x="512" y="962"/>
      <point x="641" y="962" type="curve" smooth="yes"/>
      <point x="739" y="962"/>
      <point x="904" y="940"/>
      <point x="1014" y="904" type="curve"/>
      <point x="1014" y="1163" type="line"/>
      <point x="901" y="1209"/>
      <point x="775" y="1235"/>
      <point x="607" y="1235" type="curve" smooth="yes"/>
      <point x="249" y="1235"/>
      <point x="83" y="1098"/>
      <point x="83" y="895" type="curve" smooth="yes"/>
      <point x="83" y="889" type="line" smooth="yes"/>
      <point x="83" y="729"/>
      <point x="173" y="635"/>
      <point x="338" y="617" type="curve"/>
      <point x="338" y="535" type="line"/>
      <point x="439" y="615" type="line"/>
      <point x="177" y="607"/>
      <point x="65" y="511"/>
      <point x="65" y="327" type="curve" smooth="yes"/>
      <point x="65" y="320" type="line" smooth="yes"/>
      <point x="65" y="95"/>
      <point x="246" y="-26"/>
    </contour>
    <contour>
      <point x="1028" y="1346" type="curve"/>
      <point x="1010" y="1612" type="line"/>
      <point x="966" y="1620"/>
      <point x="916" y="1624"/>
      <point x="869" y="1624" type="curve" smooth="yes"/>
      <point x="647" y="1624"/>
      <point x="543" y="1546"/>
      <point x="543" y="1418" type="curve" smooth="yes"/>
      <point x="543" y="1331"/>
      <point x="596" y="1267"/>
      <point x="686" y="1241" type="curve"/>
      <point x="686" y="1097" type="line"/>
      <point x="912" y="1186" type="line"/>
      <point x="864" y="1208"/>
      <point x="838" y="1244"/>
      <point x="838" y="1282" type="curve" smooth="yes"/>
      <point x="838" y="1327"/>
      <point x="869" y="1358"/>
      <point x="937" y="1358" type="curve" smooth="yes"/>
      <point x="965" y="1358"/>
      <point x="997" y="1354"/>
    </contour>
  </outline>
</glyph>
<glyph name="seven.gm" format="2">
  <advance width="1185"/>
  <unicode hex="0A6D"/>
  <outline>
    <contour>
      <point x="126" y="0" type="line"/>
      <point x="265" y="0" type="line" smooth="yes"/>
      <point x="828" y="0"/>
      <point x="1120" y="218"/>
      <point x="1120" y="703" type="curve" smooth="yes"/>
      <point x="1120" y="764" type="line" smooth="yes"/>
      <point x="1120" y="1069"/>
      <point x="924" y="1266"/>
      <point x="599" y="1266" type="curve" smooth="yes"/>
      <point x="257" y="1266"/>
      <point x="80" y="1079"/>
      <point x="80" y="747" type="curve" smooth="yes"/>
      <point x="80" y="614" type="line"/>
      <point x="429" y="614" type="line"/>
      <point x="429" y="760" type="line" smooth="yes"/>
      <point x="429" y="898"/>
      <point x="479" y="976"/>
      <point x="599" y="976" type="curve" smooth="yes"/>
      <point x="714" y="976"/>
      <point x="767" y="898"/>
      <point x="767" y="772" type="curve" smooth="yes"/>
      <point x="767" y="702" type="line" smooth="yes"/>
      <point x="767" y="402"/>
      <point x="610" y="291"/>
      <point x="249" y="291" type="curve" smooth="yes"/>
      <point x="108" y="291" type="line"/>
    </contour>
  </outline>
</glyph>
<glyph name="eight.gm" format="2">
  <advance width="1129"/>
  <unicode hex="0A6E"/>
  <outline>
    <contour>
      <point x="688" y="-32" type="curve" smooth="yes"/>
      <point x="848" y="-32"/>
      <point x="982" y="6"/>
      <point x="1056" y="53" type="curve"/>
      <point x="1074" y="328" type="line"/>
      <point x="977" y="280"/>
      <point x="864" y="253"/>
      <point x="746" y="253" type="curve" smooth="yes"/>
      <point x="547" y="253"/>
      <point x="427" y="346"/>
      <point x="427" y="531" type="curve" smooth="yes"/>
      <point x="427" y="1241" type="line"/>
      <point x="80" y="1196" type="line"/>
      <point x="80" y="534" type="line" smooth="yes"/>
      <point x="80" y="165"/>
      <point x="300" y="-32"/>
    </contour>
    <contour>
      <point x="1048" y="753" type="line"/>
      <point x="1048" y="1029" type="line"/>
      <point x="255" y="1031" type="line"/>
      <point x="255" y="755" type="line"/>
    </contour>
  </outline>
</glyph>
<glyph name="nine.gm" format="2">
  <advance width="1129"/>
  <unicode hex="0A6F"/>
  <outline>
    <contour>
      <point x="688" y="-32" type="curve" smooth="yes"/>
      <point x="848" y="-32"/>
      <point x="982" y="6"/>
      <point x="1056" y="53" type="curve"/>
      <point x="1074" y="328" type="line"/>
      <point x="977" y="280"/>
      <point x="864" y="253"/>
      <point x="746" y="253" type="curve" smooth="yes"/>
      <point x="547" y="253"/>
      <point x="427" y="346"/>
      <point x="427" y="531" type="curve" smooth="yes"/>
      <point x="427" y="1241" type="line"/>
      <point x="80" y="1196" type="line"/>
      <point x="80" y="534" type="line" smooth="yes"/>
      <point x="80" y="165"/>
      <point x="300" y="-32"/>
    </contour>
    <contour>
      <point x="1058" y="753" type="line"/>
      <point x="1058" y="1029" type="line"/>
      <point x="255" y="1031" type="line"/>
      <point x="255" y="755" type="line"/>
    </contour>
    <contour>
      <point x="792" y="882" type="line"/>
      <point x="1008" y="1017" type="line"/>
      <point x="956" y="1027"/>
      <point x="921" y="1061"/>
      <point x="921" y="1107" type="curve" smooth="yes"/>
      <point x="921" y="1155"/>
      <point x="958" y="1188"/>
      <point x="1027" y="1188" type="curve" smooth="yes"/>
      <point x="1056" y="1188"/>
      <point x="1084" y="1186"/>
      <point x="1113" y="1180" type="curve"/>
      <point x="1095" y="1447" type="line" smooth="yes"/>
      <point x="1050" y="1456"/>
      <point x="1004" y="1459"/>
      <point x="959" y="1459" type="curve" smooth="yes"/>
      <point x="735" y="1459"/>
      <point x="637" y="1368"/>
      <point x="637" y="1234" type="curve" smooth="yes"/>
      <point x="637" y="1132"/>
      <point x="692" y="1066"/>
      <point x="792" y="1038" type="curve"/>
    </contour>
  </outline>
</glyph>
<glyph name="Tippi.gm" format="2">
  <unicode hex="0A70"/>
  <anchor x="500" y="1200" name="_top"/>
  <outline>
    <contour>
      <point x="-9" y="1359" type="curve"/>
      <point x="146" y="1359" type="line"/>
      <point x="138" y="1386"/>
      <point x="133" y="1413"/>
      <point x="133" y="1437" type="curve" smooth="yes"/>
      <point x="133" y="1501"/>
      <point x="170" y="1536"/>
      <point x="243" y="1536" type="curve" smooth="yes"/>
      <point x="315" y="1536"/>
      <point x="353" y="1501"/>
      <point x="353" y="1437" type="curve" smooth="yes"/>
      <point x="353" y="1412"/>
      <point x="348" y="1386"/>
      <point x="340" y="1359" type="curve"/>
      <point x="494" y="1359" type="line"/>
      <point x="535" y="1408"/>
      <point x="563" y="1473"/>
      <point x="563" y="1542" type="curve" smooth="yes"/>
      <point x="563" y="1692"/>
      <point x="443" y="1791"/>
      <point x="243" y="1791" type="curve" smooth="yes"/>
      <point x="46" y="1791"/>
      <point x="-78" y="1692"/>
      <point x="-78" y="1542" type="curve" smooth="yes"/>
      <point x="-78" y="1473"/>
      <point x="-49" y="1408"/>
    </contour>
  </outline>
</glyph>
<glyph name="Ura.gm" format="2">
  <advance width="1332"/>
  <unicode hex="0A73"/>
  <anchor x="1682" y="1387" name="top1"/>
  <outline>
    <contour>
      <point x="707" y="-31" type="curve" smooth="yes"/>
      <point x="1069" y="-31"/>
      <point x="1234" y="119"/>
      <point x="1234" y="349" type="curve" smooth="yes"/>
      <point x="1234" y="351" type="line" smooth="yes"/>
      <point x="1234" y="511"/>
      <point x="1145" y="643"/>
      <point x="849" y="641" type="curve"/>
      <point x="953" y="534" type="line"/>
      <point x="953" y="646" type="line"/>
      <point x="1196" y="646"/>
      <point x="1269" y="800"/>
      <point x="1269" y="988" type="curve" smooth="yes"/>
      <point x="1269" y="1113" type="line"/>
      <point x="927" y="1113" type="line"/>
      <point x="927" y="964" type="line" smooth="yes"/>
      <point x="927" y="830"/>
      <point x="846" y="765"/>
      <point x="708" y="765" type="curve" smooth="yes"/>
      <point x="280" y="765" type="line"/>
      <point x="280" y="501" type="line"/>
      <point x="724" y="501" type="line" smooth="yes"/>
      <point x="840" y="501"/>
      <point x="880" y="452"/>
      <point x="880" y="384" type="curve" smooth="yes"/>
      <point x="880" y="380" type="line" smooth="yes"/>
      <point x="880" y="304"/>
      <point x="835" y="245"/>
      <point x="694" y="245" type="curve" smooth="yes"/>
      <point x="508" y="245"/>
      <point x="432" y="345"/>
      <point x="432" y="580" type="curve"/>
      <point x="432" y="1168" type="line"/>
      <point x="432" y="1365"/>
      <point x="520" y="1460"/>
      <point x="690" y="1460" type="curve" smooth="yes"/>
      <point x="848" y="1460"/>
      <point x="934" y="1390"/>
      <point x="937" y="1256" type="curve" smooth="yes"/>
      <point x="938" y="1212" type="line"/>
      <point x="1024" y="1239" type="line"/>
      <point x="1024" y="1249" type="line"/>
      <point x="1273" y="1315" type="line"/>
      <point x="1272" y="1321" type="line" smooth="yes"/>
      <point x="1230" y="1573"/>
      <point x="1052" y="1734"/>
      <point x="688" y="1734" type="curve" smooth="yes"/>
      <point x="306" y="1734"/>
      <point x="90" y="1521"/>
      <point x="90" y="1145" type="curve"/>
      <point x="90" y="584" type="line"/>
      <point x="90" y="184"/>
      <point x="294" y="-31"/>
    </contour>
    <contour>
      <point x="37" y="986" type="line"/>
      <point x="264" y="986" type="line"/>
      <point x="282" y="993" type="line"/>
      <point x="1102" y="993" type="line"/>
      <point x="1118" y="986" type="line"/>
      <point x="1314" y="986" type="line"/>
      <point x="1314" y="1242" type="line"/>
      <point x="37" y="1242" type="line"/>
    </contour>
    <component base="_cap.shiro_left"/>
    <component base="_cap.shiro_right" xOffset="1014"/>
  </outline>
</glyph>
<glyph name="EkOnkar.gm" format="2">
  <advance width="2497"/>
  <unicode hex="0A74"/>
  <outline>
    <contour>
      <point x="1843" y="-31" type="curve" smooth="yes"/>
      <point x="2206" y="-31"/>
      <point x="2371" y="119"/>
      <point x="2371" y="349" type="curve" smooth="yes"/>
      <point x="2371" y="370" type="line" smooth="yes"/>
      <point x="2371" y="519"/>
      <point x="2281" y="643"/>
      <point x="1986" y="641" type="curve"/>
      <point x="2090" y="534" type="line"/>
      <point x="2090" y="644" type="line"/>
      <point x="2333" y="644"/>
      <point x="2406" y="800"/>
      <point x="2406" y="989" type="curve" smooth="yes"/>
      <point x="2406" y="1098" type="line"/>
      <point x="2062" y="1098" type="line"/>
      <point x="2062" y="965" type="line" smooth="yes"/>
      <point x="2062" y="831"/>
      <point x="1981" y="768"/>
      <point x="1845" y="768" type="curve" smooth="yes"/>
      <point x="1417" y="768" type="line"/>
      <point x="1417" y="498" type="line"/>
      <point x="1861" y="498" type="line" smooth="yes"/>
      <point x="1975" y="498"/>
      <point x="2015" y="455"/>
      <point x="2015" y="394" type="curve" smooth="yes"/>
      <point x="2015" y="378" type="line" smooth="yes"/>
      <point x="2015" y="301"/>
      <point x="1973" y="249"/>
      <point x="1831" y="249" type="curve" smooth="yes"/>
      <point x="1647" y="249"/>
      <point x="1571" y="348"/>
      <point x="1571" y="581" type="curve" smooth="yes"/>
      <point x="1571" y="1079" type="line" smooth="yes"/>
      <point x="1571" y="1347"/>
      <point x="1665" y="1447"/>
      <point x="1932" y="1447" type="curve" smooth="yes"/>
      <point x="2036" y="1447"/>
      <point x="2149" y="1431"/>
      <point x="2255" y="1402" type="curve"/>
      <point x="2238" y="1671" type="line"/>
      <point x="2144" y="1704"/>
      <point x="2015" y="1725"/>
      <point x="1883" y="1725" type="curve" smooth="yes"/>
      <point x="1456" y="1725"/>
      <point x="1227" y="1517"/>
      <point x="1227" y="1114" type="curve" smooth="yes"/>
      <point x="1227" y="584" type="line" smooth="yes"/>
      <point x="1227" y="184"/>
      <point x="1431" y="-31"/>
    </contour>
    <contour>
      <point x="1378" y="986" type="line"/>
      <point x="1445" y="986" type="line"/>
      <point x="1459" y="993" type="line"/>
      <point x="2233" y="993" type="line"/>
      <point x="2247" y="986" type="line"/>
      <point x="2440" y="986" type="line"/>
      <point x="2440" y="1242" type="line"/>
      <point x="1378" y="1242" type="line"/>
    </contour>
    <contour>
      <point x="2255" y="1402" type="line"/>
      <point x="2255" y="1455" type="line" smooth="yes"/>
      <point x="2255" y="1669"/>
      <point x="2351" y="1758"/>
      <point x="2556" y="1758" type="curve" smooth="yes"/>
      <point x="2625" y="1758"/>
      <point x="2701" y="1747"/>
      <point x="2769" y="1728" type="curve"/>
      <point x="2752" y="1997" type="line"/>
      <point x="2680" y="2019"/>
      <point x="2582" y="2036"/>
      <point x="2492" y="2036" type="curve" smooth="yes"/>
      <point x="2156" y="2036"/>
      <point x="1937" y="1879"/>
      <point x="1937" y="1541" type="curve" smooth="yes"/>
      <point x="1937" y="1518" type="line"/>
    </contour>
    <component base="one.gm"/>
    <component base="_cap.shiro_right" xOffset="2180"/>
  </outline>
</glyph>
<glyph name="Yakash.gm" format="2">
  <unicode hex="0A75"/>
  <anchor x="700" y="100" name="_bottom"/>
  <anchor x="600" y="320" name="bottom1"/>
  <outline>
    <contour>
      <point x="564" y="-545" type="curve" smooth="yes"/>
      <point x="844" y="-545"/>
      <point x="964" y="-410"/>
      <point x="964" y="-196" type="curve"/>
      <point x="668" y="-196" type="line"/>
      <point x="668" y="-263"/>
      <point x="647" y="-325"/>
      <point x="578" y="-325" type="curve" smooth="yes"/>
      <point x="511" y="-325"/>
      <point x="492" y="-265"/>
      <point x="492" y="-201" type="curve" smooth="yes"/>
      <point x="492" y="38" type="line"/>
      <point x="150" y="38" type="line"/>
      <point x="150" y="-201" type="line" smooth="yes"/>
      <point x="150" y="-407"/>
      <point x="270" y="-545"/>
    </contour>
  </outline>
</glyph>
<glyph name="Khanda.gm" format="2">
  <advance width="1813"/>
  <unicode hex="262C"/>
  <outline>
    <contour>
      <point x="815" y="-17" type="line"/>
      <point x="995" y="-17" type="line"/>
      <point x="947" y="188" type="line"/>
      <point x="1131" y="42" type="line"/>
      <point x="1247" y="142" type="line"/>
      <point x="989" y="248" type="line"/>
      <point x="1216" y="248"/>
      <point x="1632" y="425"/>
      <point x="1632" y="837" type="curve" smooth="yes"/>
      <point x="1632" y="1056"/>
      <point x="1500" y="1210"/>
      <point x="1318" y="1226" type="curve"/>
      <point x="1377" y="1154"/>
      <point x="1423" y="1052"/>
      <point x="1423" y="892" type="curve" smooth="yes"/>
      <point x="1423" y="497"/>
      <point x="1127" y="354"/>
      <point x="944" y="337" type="curve"/>
      <point x="944" y="402" type="line"/>
      <point x="1063" y="475" type="line"/>
      <point x="1014" y="612"/>
      <point x="991" y="752"/>
      <point x="991" y="892" type="curve" smooth="yes"/>
      <point x="991" y="1041"/>
      <point x="1018" y="1189"/>
      <point x="1072" y="1334" type="curve"/>
      <point x="913" y="1488" type="line"/>
      <point x="748" y="1334" type="line"/>
      <point x="804" y="1189"/>
      <point x="833" y="1039"/>
      <point x="833" y="889" type="curve" smooth="yes"/>
      <point x="833" y="749"/>
      <point x="810" y="610"/>
      <point x="760" y="475" type="curve"/>
      <point x="866" y="407" type="line"/>
      <point x="866" y="337" type="line"/>
      <point x="682" y="354"/>
      <point x="390" y="497"/>
      <point x="390" y="892" type="curve" smooth="yes"/>
      <point x="390" y="1052"/>
      <point x="436" y="1154"/>
      <point x="495" y="1226" type="curve"/>
      <point x="313" y="1210"/>
      <point x="181" y="1056"/>
      <point x="181" y="837" type="curve" smooth="yes"/>
      <point x="181" y="425"/>
      <point x="593" y="248"/>
      <point x="820" y="248" type="curve"/>
      <point x="563" y="142" type="line"/>
      <point x="679" y="42" type="line"/>
      <point x="862" y="188" type="line"/>
    </contour>
    <contour>
      <point x="911" y="538" type="curve" smooth="yes"/>
      <point x="1157" y="538"/>
      <point x="1314" y="679"/>
      <point x="1314" y="908" type="curve" smooth="yes"/>
      <point x="1314" y="1138"/>
      <point x="1157" y="1278"/>
      <point x="911" y="1278" type="curve" smooth="yes"/>
      <point x="663" y="1278"/>
      <point x="506" y="1138"/>
      <point x="506" y="908" type="curve" smooth="yes"/>
      <point x="506" y="679"/>
      <point x="663" y="538"/>
    </contour>
    <contour>
      <point x="911" y="583" type="curve" smooth="yes"/>
      <point x="739" y="583"/>
      <point x="662" y="697"/>
      <point x="662" y="908" type="curve" smooth="yes"/>
      <point x="662" y="1119"/>
      <point x="739" y="1232"/>
      <point x="911" y="1232" type="curve" smooth="yes"/>
      <point x="1081" y="1232"/>
      <point x="1159" y="1119"/>
      <point x="1159" y="908" type="curve" smooth="yes"/>
      <point x="1159" y="697"/>
      <point x="1081" y="583"/>
    </contour>
  </outline>
</glyph>
<glyph name="Addak.gm.alt" format="2">
  <anchor x="500" y="1200" name="_top1"/>
  <outline>
    <contour>
      <point x="194" y="1381" type="curve" smooth="yes"/>
      <point x="354" y="1381"/>
      <point x="425" y="1472"/>
      <point x="413" y="1666" type="curve"/>
      <point x="300" y="1666" type="line"/>
      <point x="291" y="1598"/>
      <point x="254" y="1565"/>
      <point x="192" y="1565" type="curve" smooth="yes"/>
      <point x="125" y="1565"/>
      <point x="90" y="1600"/>
      <point x="82" y="1666" type="curve"/>
      <point x="-31" y="1666" type="line"/>
      <point x="-43" y="1472"/>
      <point x="28" y="1381"/>
    </contour>
  </outline>
</glyph>
<glyph name="AddakBindi.gm.alt" format="2">
  <anchor x="500" y="1200" name="_top1"/>
  <outline>
    <contour>
      <point x="195" y="1380" type="curve" smooth="yes"/>
      <point x="355" y="1380"/>
      <point x="425" y="1469"/>
      <point x="414" y="1665" type="curve"/>
      <point x="311" y="1665" type="line"/>
      <point x="301" y="1587"/>
      <point x="261" y="1549"/>
      <point x="192" y="1549" type="curve" smooth="yes"/>
      <point x="119" y="1549"/>
      <point x="82" y="1587"/>
      <point x="72" y="1665" type="curve"/>
      <point x="-32" y="1665" type="line"/>
      <point x="-42" y="1469"/>
      <point x="30" y="1380"/>
    </contour>
    <contour>
      <point x="193" y="1605" type="curve" smooth="yes"/>
      <point x="248" y="1605"/>
      <point x="271" y="1634"/>
      <point x="271" y="1681" type="curve" smooth="yes"/>
      <point x="271" y="1684" type="line" smooth="yes"/>
      <point x="271" y="1730"/>
      <point x="248" y="1759"/>
      <point x="193" y="1759" type="curve" smooth="yes"/>
      <point x="139" y="1759"/>
      <point x="115" y="1730"/>
      <point x="115" y="1683" type="curve" smooth="yes"/>
      <point x="115" y="1680" type="line" smooth="yes"/>
      <point x="115" y="1634"/>
      <point x="139" y="1605"/>
    </contour>
  </outline>
</glyph>
<glyph name="AddakBindiDist.gm" format="2">
  <anchor x="390" y="1200" name="_top"/>
  <outline>
    <contour>
      <point x="250" y="1678" type="curve" smooth="yes"/>
      <point x="318" y="1678"/>
      <point x="348" y="1714"/>
      <point x="348" y="1774" type="curve" smooth="yes"/>
      <point x="348" y="1777" type="line" smooth="yes"/>
      <point x="348" y="1835"/>
      <point x="318" y="1872"/>
      <point x="250" y="1872" type="curve" smooth="yes"/>
      <point x="181" y="1872"/>
      <point x="151" y="1835"/>
      <point x="151" y="1777" type="curve" smooth="yes"/>
      <point x="151" y="1773" type="line" smooth="yes"/>
      <point x="151" y="1715"/>
      <point x="181" y="1678"/>
    </contour>
    <contour>
      <point x="250" y="1356" type="curve" smooth="yes"/>
      <point x="478" y="1356"/>
      <point x="573" y="1478"/>
      <point x="563" y="1745" type="curve"/>
      <point x="412" y="1745" type="line"/>
      <point x="397" y="1656"/>
      <point x="343" y="1612"/>
      <point x="247" y="1612" type="curve" smooth="yes"/>
      <point x="146" y="1612"/>
      <point x="95" y="1656"/>
      <point x="80" y="1745" type="curve"/>
      <point x="-71" y="1745" type="line"/>
      <point x="-81" y="1478"/>
      <point x="16" y="1356"/>
    </contour>
  </outline>
</glyph>
<glyph name="AddakDist.gm" format="2">
  <anchor x="390" y="1200" name="_top"/>
  <outline>
    <contour>
      <point x="250" y="1356" type="curve" smooth="yes"/>
      <point x="478" y="1356"/>
      <point x="573" y="1478"/>
      <point x="563" y="1745" type="curve"/>
      <point x="412" y="1745" type="line"/>
      <point x="397" y="1656"/>
      <point x="343" y="1612"/>
      <point x="247" y="1612" type="curve" smooth="yes"/>
      <point x="146" y="1612"/>
      <point x="95" y="1656"/>
      <point x="80" y="1745" type="curve"/>
      <point x="-71" y="1745" type="line"/>
      <point x="-81" y="1478"/>
      <point x="16" y="1356"/>
    </contour>
  </outline>
</glyph>
<glyph name="AddhaMa.gm" format="2">
  <advance width="1222"/>
  <anchor x="1305" y="100" name="bottom1"/>
  <anchor x="1184" y="1200" name="top"/>
  <outline>
    <contour>
      <point x="60" y="354" type="line"/>
      <point x="887" y="354" type="line"/>
      <point x="887" y="639" type="line"/>
      <point x="60" y="639" type="line"/>
    </contour>
    <component base="_danda" xOffset="593"/>
  </outline>
</glyph>
<glyph name="AddhaTha.gm" format="2">
  <advance width="1237"/>
  <anchor x="1320" y="100" name="bottom1"/>
  <anchor x="1199" y="1200" name="top"/>
  <outline>
    <contour>
      <point x="462" y="141" type="curve" smooth="yes"/>
      <point x="598" y="141"/>
      <point x="734" y="163"/>
      <point x="857" y="205" type="curve"/>
      <point x="857" y="490" type="line"/>
      <point x="734" y="448"/>
      <point x="598" y="425"/>
      <point x="462" y="425" type="curve" smooth="yes"/>
      <point x="326" y="425"/>
      <point x="187" y="448"/>
      <point x="60" y="490" type="curve"/>
      <point x="60" y="205" type="line"/>
      <point x="187" y="163"/>
      <point x="326" y="141"/>
    </contour>
    <contour>
      <point x="34" y="986" type="line"/>
      <point x="959" y="986" type="line"/>
      <point x="959" y="1242" type="line"/>
      <point x="34" y="1242" type="line"/>
    </contour>
    <component base="_danda" xOffset="608"/>
    <component base="_cap.shiro_left"/>
  </outline>
</glyph>
<glyph name="AddhaYa.gm" format="2">
  <advance width="1421"/>
  <anchor x="1430" y="100" name="bottom1"/>
  <anchor x="1383" y="1200" name="top"/>
  <outline>
    <contour>
      <point x="404" y="94" type="curve" smooth="yes"/>
      <point x="550" y="94"/>
      <point x="679" y="118"/>
      <point x="772" y="159" type="curve"/>
      <point x="772" y="520" type="line"/>
      <point x="1095" y="520" type="line"/>
      <point x="1095" y="802" type="line"/>
      <point x="440" y="802" type="line"/>
      <point x="440" y="332" type="line"/>
      <point x="531" y="407" type="line"/>
      <point x="491" y="392"/>
      <point x="433" y="385"/>
      <point x="363" y="385" type="curve" smooth="yes"/>
      <point x="253" y="385"/>
      <point x="146" y="403"/>
      <point x="59" y="436" type="curve"/>
      <point x="59" y="146" type="line"/>
      <point x="158" y="112"/>
      <point x="281" y="94"/>
    </contour>
    <contour>
      <point x="14" y="986" type="line"/>
      <point x="1184" y="986" type="line"/>
      <point x="1184" y="1242" type="line"/>
      <point x="14" y="1242" type="line"/>
    </contour>
    <component base="_danda" xOffset="792"/>
    <component base="_cap.shiro_left"/>
  </outline>
</glyph>
<glyph name="Bindi.gm.alt" format="2">
  <anchor x="500" y="1200" name="_top1"/>
  <outline>
    <contour>
      <point x="88" y="1460" type="curve" smooth="yes"/>
      <point x="174" y="1460"/>
      <point x="211" y="1505"/>
      <point x="211" y="1579" type="curve" smooth="yes"/>
      <point x="211" y="1584" type="line" smooth="yes"/>
      <point x="211" y="1656"/>
      <point x="174" y="1702"/>
      <point x="88" y="1702" type="curve" smooth="yes"/>
      <point x="2" y="1702"/>
      <point x="-34" y="1656"/>
      <point x="-34" y="1583" type="curve" smooth="yes"/>
      <point x="-34" y="1578" type="line" smooth="yes"/>
      <point x="-34" y="1506"/>
      <point x="2" y="1460"/>
    </contour>
  </outline>
</glyph>
<glyph name="KaViramaRa.gm" format="2">
  <advance width="1373"/>
  <anchor x="1233" y="-281" name="bottom"/>
  <anchor x="1455" y="-329" name="bottom1"/>
  <anchor x="1344" y="1200" name="top"/>
  <outline>
    <contour>
      <point x="574" y="-400" type="line"/>
      <point x="1059" y="-400" type="line"/>
      <point x="1233" y="-281" type="line"/>
      <point x="1261" y="-195"/>
      <point x="1265" y="-108"/>
      <point x="1265" y="-40" type="curve"/>
      <point x="1265" y="16" type="line"/>
      <point x="1265" y="311"/>
      <point x="1161" y="465"/>
      <point x="1038" y="573" type="curve"/>
      <point x="921" y="688" type="line"/>
      <point x="837" y="797"/>
      <point x="705" y="871"/>
      <point x="496" y="871" type="curve" smooth="yes"/>
      <point x="220" y="871"/>
      <point x="70" y="736"/>
      <point x="70" y="507" type="curve"/>
      <point x="70" y="495" type="line"/>
      <point x="70" y="269"/>
      <point x="236" y="137"/>
      <point x="523" y="137" type="curve" smooth="yes"/>
      <point x="740" y="137"/>
      <point x="883" y="219"/>
      <point x="960" y="336" type="curve"/>
      <point x="1023" y="431" type="line"/>
      <point x="1161" y="564"/>
      <point x="1239" y="745"/>
      <point x="1260" y="968" type="curve" smooth="yes"/>
      <point x="1273" y="1108" type="line"/>
      <point x="911" y="1104" type="line"/>
      <point x="901" y="978" type="line" smooth="yes"/>
      <point x="891" y="854"/>
      <point x="855" y="728"/>
      <point x="819" y="666" type="curve"/>
      <point x="800" y="503" type="line"/>
      <point x="742" y="448"/>
      <point x="661" y="419"/>
      <point x="576" y="419" type="curve" smooth="yes"/>
      <point x="469" y="419"/>
      <point x="424" y="446"/>
      <point x="424" y="498" type="curve"/>
      <point x="424" y="507" type="line"/>
      <point x="424" y="560"/>
      <point x="469" y="589"/>
      <point x="576" y="589" type="curve" smooth="yes"/>
      <point x="663" y="589"/>
      <point x="749" y="554"/>
      <point x="800" y="503" type="curve"/>
      <point x="843" y="362" type="line"/>
      <point x="882" y="289"/>
      <point x="918" y="191"/>
      <point x="918" y="18" type="curve"/>
      <point x="918" y="-30" type="line"/>
      <point x="918" y="-79"/>
      <point x="917" y="-127"/>
      <point x="912" y="-169" type="curve"/>
      <point x="961" y="-99" type="line"/>
      <point x="565" y="-99" type="line"/>
    </contour>
    <contour>
      <point x="1527" y="-683" type="curve"/>
      <point x="1495" y="-359" type="line"/>
      <point x="1387" y="-287"/>
      <point x="1174" y="-180"/>
      <point x="1041" y="-131" type="curve"/>
      <point x="906" y="-345" type="line"/>
      <point x="1081" y="-411"/>
      <point x="1375" y="-579"/>
    </contour>
    <contour>
      <point x="23" y="985" type="line"/>
      <point x="1360" y="985" type="line"/>
      <point x="1360" y="1242" type="line"/>
      <point x="23" y="1242" type="line"/>
    </contour>
    <component base="_cap.shiro_left"/>
    <component base="_cap.shiro_right" xOffset="1055"/>
  </outline>
</glyph>
<glyph name="LaHa.gm" format="2">
  <advance width="1513"/>
  <anchor x="1570" y="-568" name="bottom1"/>
  <anchor x="1420" y="1200" name="top"/>
  <outline>
    <contour>
      <point x="759" y="303" type="curve"/>
      <point x="1004" y="429"/>
      <point x="1283" y="737"/>
      <point x="1314" y="1092" type="curve"/>
      <point x="1318" y="1124" type="line"/>
      <point x="969" y="1124" type="line"/>
      <point x="958" y="1057" type="line"/>
      <point x="930" y="887"/>
      <point x="862" y="745"/>
      <point x="759" y="642" type="curve"/>
      <point x="655" y="737"/>
      <point x="585" y="880"/>
      <point x="555" y="1057" type="curve"/>
      <point x="544" y="1124" type="line"/>
      <point x="195" y="1124" type="line"/>
      <point x="199" y="1092" type="line"/>
      <point x="231" y="730"/>
      <point x="492" y="429"/>
    </contour>
    <contour>
      <point x="194" y="0" type="curve"/>
      <point x="535" y="0" type="line"/>
      <point x="545" y="12" type="line"/>
      <point x="466" y="118"/>
      <point x="436" y="204"/>
      <point x="436" y="325" type="curve" smooth="yes"/>
      <point x="436" y="336" type="line" smooth="yes"/>
      <point x="436" y="414"/>
      <point x="465" y="484"/>
      <point x="527" y="524" type="curve"/>
      <point x="419" y="808" type="line"/>
      <point x="190" y="745"/>
      <point x="85" y="580"/>
      <point x="85" y="357" type="curve" smooth="yes"/>
      <point x="85" y="345" type="line" smooth="yes"/>
      <point x="85" y="201"/>
      <point x="124" y="85"/>
    </contour>
    <contour>
      <point x="1314" y="0" type="line"/>
      <point x="1391" y="88"/>
      <point x="1428" y="201"/>
      <point x="1428" y="333" type="curve" smooth="yes"/>
      <point x="1428" y="350" type="line" smooth="yes"/>
      <point x="1428" y="586"/>
      <point x="1318" y="745"/>
      <point x="1088" y="808" type="curve"/>
      <point x="980" y="524" type="line"/>
      <point x="1047" y="484"/>
      <point x="1078" y="414"/>
      <point x="1078" y="336" type="curve" smooth="yes"/>
      <point x="1078" y="325" type="line" smooth="yes"/>
      <point x="1078" y="191"/>
      <point x="1046" y="109"/>
      <point x="972" y="14" type="curve"/>
      <point x="972" y="0" type="line"/>
    </contour>
    <contour>
      <point x="27" y="986" type="line"/>
      <point x="1460" y="986" type="line"/>
      <point x="1460" y="1242" type="line"/>
      <point x="27" y="1242" type="line"/>
    </contour>
    <contour>
      <point x="865" y="-740" type="curve" smooth="yes"/>
      <point x="1168" y="-740"/>
      <point x="1314" y="-603"/>
      <point x="1314" y="-375" type="curve" smooth="yes"/>
      <point x="1314" y="0" type="line"/>
      <point x="972" y="0" type="line"/>
      <point x="972" y="-392" type="line" smooth="yes"/>
      <point x="972" y="-455"/>
      <point x="932" y="-492"/>
      <point x="856" y="-492" type="curve" smooth="yes"/>
      <point x="775" y="-492"/>
      <point x="719" y="-453"/>
      <point x="719" y="-390" type="curve" smooth="yes"/>
      <point x="719" y="-388" type="line" smooth="yes"/>
      <point x="719" y="-342"/>
      <point x="751" y="-318"/>
      <point x="808" y="-318" type="curve" smooth="yes"/>
      <point x="888" y="-318" type="line"/>
      <point x="888" y="-80" type="line"/>
      <point x="753" y="-80" type="line" smooth="yes"/>
      <point x="536" y="-80"/>
      <point x="408" y="-183"/>
      <point x="408" y="-379" type="curve" smooth="yes"/>
      <point x="408" y="-385" type="line" smooth="yes"/>
      <point x="408" y="-576"/>
      <point x="563" y="-740"/>
    </contour>
    <component base="_cap.shiro_left"/>
    <component base="_cap.shiro_right" xOffset="1196"/>
  </outline>
</glyph>
<glyph name="MatraAi.gm.alt" format="2">
  <anchor x="500" y="1200" name="_top"/>
  <anchor x="882" y="1398" name="top1"/>
  <outline>
    <contour>
      <point x="290" y="1207" type="line"/>
      <point x="399" y="1207" type="line"/>
      <point x="392" y="1379" type="line" smooth="yes"/>
      <point x="377" y="1756"/>
      <point x="238" y="1912"/>
      <point x="-93" y="1912" type="curve" smooth="yes"/>
      <point x="-141" y="1912"/>
      <point x="-195" y="1911"/>
      <point x="-275" y="1897" type="curve"/>
      <point x="-290" y="1659" type="line"/>
      <point x="-226" y="1672"/>
      <point x="-144" y="1679"/>
      <point x="-88" y="1679" type="curve" smooth="yes"/>
      <point x="148" y="1679"/>
      <point x="243" y="1574"/>
      <point x="278" y="1418" type="curve"/>
      <point x="264" y="1413" type="line"/>
    </contour>
    <contour>
      <point x="221" y="1207" type="line"/>
      <point x="304" y="1207" type="line"/>
      <point x="300" y="1269" type="line" smooth="yes"/>
      <point x="286" y="1493"/>
      <point x="154" y="1588"/>
      <point x="-63" y="1588" type="curve" smooth="yes"/>
      <point x="-109" y="1588"/>
      <point x="-161" y="1584"/>
      <point x="-208" y="1575" type="curve"/>
      <point x="-223" y="1343" type="line"/>
      <point x="-143" y="1356"/>
      <point x="-101" y="1360"/>
      <point x="-36" y="1360" type="curve" smooth="yes"/>
      <point x="114" y="1360"/>
      <point x="211" y="1325"/>
      <point x="219" y="1231" type="curve" smooth="yes"/>
    </contour>
  </outline>
</glyph>
<glyph name="MatraAu.gm.alt" format="2">
  <anchor x="500" y="1200" name="_top"/>
  <anchor x="1012" y="1459" name="top1"/>
  <outline>
    <contour>
      <point x="31" y="1357" type="curve"/>
      <point x="190" y="1357" type="line"/>
      <point x="184" y="1377"/>
      <point x="180" y="1398"/>
      <point x="180" y="1422" type="curve"/>
      <point x="180" y="1484"/>
      <point x="214" y="1518"/>
      <point x="267" y="1518" type="curve"/>
      <point x="322" y="1518"/>
      <point x="354" y="1484"/>
      <point x="354" y="1422" type="curve"/>
      <point x="354" y="1398"/>
      <point x="350" y="1377"/>
      <point x="344" y="1357" type="curve"/>
      <point x="502" y="1357" type="line"/>
      <point x="542" y="1401"/>
      <point x="564" y="1456"/>
      <point x="564" y="1525" type="curve" smooth="yes"/>
      <point x="564" y="1666"/>
      <point x="458" y="1766"/>
      <point x="264" y="1766" type="curve"/>
      <point x="181" y="1766"/>
      <point x="103" y="1733"/>
      <point x="54" y="1677" type="curve"/>
      <point x="69" y="1638" type="line"/>
      <point x="-1" y="1605"/>
      <point x="-27" y="1549"/>
      <point x="-27" y="1495" type="curve"/>
      <point x="-27" y="1442"/>
      <point x="-7" y="1399"/>
    </contour>
    <contour>
      <point x="-133" y="1523" type="curve" smooth="yes"/>
      <point x="-74" y="1523"/>
      <point x="-37" y="1547"/>
      <point x="-10" y="1579" type="curve"/>
      <point x="0" y="1571" type="line"/>
      <point x="260" y="1574" type="line"/>
      <point x="264" y="1766" type="line"/>
      <point x="9" y="1766" type="line"/>
      <point x="-93" y="1766"/>
      <point x="-141" y="1791"/>
      <point x="-159" y="1896" type="curve"/>
      <point x="-302" y="1896" type="line"/>
      <point x="-295" y="1726" type="line" smooth="yes"/>
      <point x="-290" y="1597"/>
      <point x="-237" y="1523"/>
    </contour>
  </outline>
</glyph>
<glyph name="MatraEe.gm.alt" format="2">
  <anchor x="500" y="1200" name="_top"/>
  <anchor x="792" y="1387" name="top1"/>
  <outline>
    <contour>
      <point x="217" y="1209" type="line"/>
      <point x="383" y="1209" type="line"/>
      <point x="368" y="1648"/>
      <point x="185" y="1761"/>
      <point x="-120" y="1761" type="curve" smooth="yes"/>
      <point x="-182" y="1761"/>
      <point x="-242" y="1756"/>
      <point x="-296" y="1747" type="curve"/>
      <point x="-315" y="1454" type="line"/>
      <point x="-249" y="1464"/>
      <point x="-167" y="1468"/>
      <point x="-130" y="1468" type="curve" smooth="yes"/>
      <point x="108" y="1468"/>
      <point x="217" y="1388"/>
      <point x="217" y="1215" type="curve" smooth="yes"/>
    </contour>
  </outline>
</glyph>
<glyph name="MatraEeTa.gm" format="2">
  <anchor x="500" y="1200" name="_top"/>
  <anchor x="782" y="1387" name="top1"/>
  <outline>
    <contour>
      <point x="217" y="1209" type="line"/>
      <point x="383" y="1209" type="line"/>
      <point x="368" y="1656"/>
      <point x="166" y="1771"/>
      <point x="-213" y="1771" type="curve" smooth="yes"/>
      <point x="-284" y="1771"/>
      <point x="-356" y="1766"/>
      <point x="-419" y="1757" type="curve"/>
      <point x="-441" y="1464" type="line"/>
      <point x="-363" y="1474"/>
      <point x="-267" y="1478"/>
      <point x="-223" y="1478" type="curve" smooth="yes"/>
      <point x="93" y="1478"/>
      <point x="205" y="1400"/>
      <point x="217" y="1215" type="curve" smooth="yes"/>
    </contour>
  </outline>
</glyph>
<glyph name="MatraIiBindi.gm" format="2">
  <advance width="560"/>
  <anchor x="912" y="1387" name="top1"/>
  <outline>
    <contour>
      <point x="500" y="1647" type="curve" smooth="yes"/>
      <point x="586" y="1647"/>
      <point x="623" y="1692"/>
      <point x="623" y="1766" type="curve" smooth="yes"/>
      <point x="623" y="1771" type="line" smooth="yes"/>
      <point x="623" y="1843"/>
      <point x="586" y="1889"/>
      <point x="500" y="1889" type="curve" smooth="yes"/>
      <point x="414" y="1889"/>
      <point x="378" y="1843"/>
      <point x="378" y="1770" type="curve" smooth="yes"/>
      <point x="378" y="1765" type="line" smooth="yes"/>
      <point x="378" y="1693"/>
      <point x="414" y="1647"/>
    </contour>
    <component base="MatraIi.gm"/>
  </outline>
</glyph>
<glyph name="MatraOo.gm.alt" format="2">
  <anchor x="500" y="1200" name="_top"/>
  <anchor x="827" y="1389" name="top1"/>
  <outline>
    <contour>
      <point x="227" y="1239" type="curve"/>
      <point x="394" y="1239" type="line"/>
      <point x="400" y="1303"/>
      <point x="404" y="1360"/>
      <point x="404" y="1409" type="curve" smooth="yes"/>
      <point x="404" y="1614"/>
      <point x="293" y="1683"/>
      <point x="78" y="1695" type="curve" smooth="yes"/>
      <point x="-9" y="1700" type="line" smooth="yes"/>
      <point x="-113" y="1706"/>
      <point x="-150" y="1753"/>
      <point x="-161" y="1858" type="curve"/>
      <point x="-332" y="1858" type="line"/>
      <point x="-332" y="1700" type="line" smooth="yes"/>
      <point x="-332" y="1516"/>
      <point x="-251" y="1404"/>
      <point x="-34" y="1397" type="curve" smooth="yes"/>
      <point x="57" y="1394" type="line" smooth="yes"/>
      <point x="166" y="1390"/>
      <point x="216" y="1358"/>
    </contour>
  </outline>
</glyph>
<glyph name="MatraU.gm.alt" format="2">
  <anchor x="600" y="100" name="_bottom1"/>
  <outline>
    <contour>
      <point x="48" y="-1072" type="curve" smooth="yes"/>
      <point x="192" y="-1072"/>
      <point x="315" y="-1054"/>
      <point x="409" y="-1028" type="curve"/>
      <point x="421" y="-823" type="line"/>
      <point x="327" y="-846"/>
      <point x="188" y="-865"/>
      <point x="55" y="-865" type="curve" smooth="yes"/>
      <point x="-78" y="-865"/>
      <point x="-222" y="-846"/>
      <point x="-323" y="-822" type="curve"/>
      <point x="-311" y="-1028" type="line"/>
      <point x="-208" y="-1056"/>
      <point x="-80" y="-1072"/>
    </contour>
  </outline>
</glyph>
<glyph name="MatraUu.gm.alt" format="2">
  <anchor x="600" y="100" name="_bottom1"/>
  <outline>
    <contour>
      <point x="36" y="-1031" type="curve" smooth="yes"/>
      <point x="180" y="-1031"/>
      <point x="303" y="-1014"/>
      <point x="397" y="-988" type="curve"/>
      <point x="409" y="-810" type="line"/>
      <point x="315" y="-834"/>
      <point x="176" y="-852"/>
      <point x="43" y="-852" type="curve" smooth="yes"/>
      <point x="-90" y="-852"/>
      <point x="-234" y="-834"/>
      <point x="-335" y="-809" type="curve"/>
      <point x="-323" y="-988" type="line"/>
      <point x="-220" y="-1015"/>
      <point x="-92" y="-1031"/>
    </contour>
    <contour>
      <point x="34" y="-1292" type="curve" smooth="yes"/>
      <point x="179" y="-1292"/>
      <point x="301" y="-1275"/>
      <point x="395" y="-1249" type="curve"/>
      <point x="407" y="-1071" type="line"/>
      <point x="313" y="-1094"/>
      <point x="174" y="-1113"/>
      <point x="41" y="-1113" type="curve" smooth="yes"/>
      <point x="-92" y="-1113"/>
      <point x="-236" y="-1094"/>
      <point x="-337" y="-1070" type="curve"/>
      <point x="-325" y="-1249" type="line"/>
      <point x="-222" y="-1277"/>
      <point x="-94" y="-1292"/>
    </contour>
  </outline>
</glyph>
<glyph name="NaHa.gm" format="2">
  <advance width="1331"/>
  <anchor x="1408" y="-568" name="bottom1"/>
  <anchor x="937" y="1200" name="top"/>
  <outline>
    <contour>
      <point x="178" y="0" type="curve"/>
      <point x="523" y="0" type="line"/>
      <point x="522" y="14" type="line"/>
      <point x="470" y="113"/>
      <point x="441" y="218"/>
      <point x="441" y="321" type="curve" smooth="yes"/>
      <point x="441" y="343" type="line" smooth="yes"/>
      <point x="441" y="469"/>
      <point x="512" y="551"/>
      <point x="668" y="601" type="curve"/>
      <point x="820" y="546"/>
      <point x="891" y="469"/>
      <point x="891" y="343" type="curve" smooth="yes"/>
      <point x="891" y="321" type="line" smooth="yes"/>
      <point x="891" y="223"/>
      <point x="864" y="119"/>
      <point x="810" y="15" type="curve"/>
      <point x="810" y="0" type="line"/>
      <point x="1152" y="0" type="line"/>
      <point x="1209" y="86"/>
      <point x="1245" y="204"/>
      <point x="1245" y="337" type="curve" smooth="yes"/>
      <point x="1245" y="361" type="line" smooth="yes"/>
      <point x="1245" y="634"/>
      <point x="1069" y="811"/>
      <point x="667" y="874" type="curve"/>
      <point x="265" y="811"/>
      <point x="87" y="634"/>
      <point x="87" y="361" type="curve" smooth="yes"/>
      <point x="87" y="337" type="line" smooth="yes"/>
      <point x="87" y="203"/>
      <point x="122" y="85"/>
    </contour>
    <contour>
      <point x="498" y="700" type="line"/>
      <point x="842" y="700" type="line"/>
      <point x="842" y="1105" type="line"/>
      <point x="498" y="1105" type="line"/>
    </contour>
    <contour>
      <point x="57" y="986" type="line"/>
      <point x="1281" y="986" type="line"/>
      <point x="1281" y="1242" type="line"/>
      <point x="57" y="1242" type="line"/>
    </contour>
    <contour>
      <point x="703" y="-740" type="curve" smooth="yes"/>
      <point x="1006" y="-740"/>
      <point x="1152" y="-603"/>
      <point x="1152" y="-375" type="curve" smooth="yes"/>
      <point x="1152" y="0" type="line"/>
      <point x="810" y="0" type="line"/>
      <point x="810" y="-392" type="line" smooth="yes"/>
      <point x="810" y="-455"/>
      <point x="770" y="-492"/>
      <point x="694" y="-492" type="curve" smooth="yes"/>
      <point x="613" y="-492"/>
      <point x="557" y="-453"/>
      <point x="557" y="-390" type="curve" smooth="yes"/>
      <point x="557" y="-388" type="line" smooth="yes"/>
      <point x="557" y="-342"/>
      <point x="589" y="-318"/>
      <point x="646" y="-318" type="curve" smooth="yes"/>
      <point x="726" y="-318" type="line"/>
      <point x="726" y="-80" type="line"/>
      <point x="591" y="-80" type="line" smooth="yes"/>
      <point x="374" y="-80"/>
      <point x="246" y="-183"/>
      <point x="246" y="-379" type="curve" smooth="yes"/>
      <point x="246" y="-385" type="line" smooth="yes"/>
      <point x="246" y="-576"/>
      <point x="401" y="-740"/>
    </contour>
    <component base="_cap.shiro_left"/>
    <component base="_cap.shiro_right" xOffset="1014"/>
  </outline>
</glyph>
<glyph name="NaViramaRa.gm" format="2">
  <advance width="1331"/>
  <anchor x="1120" y="-331" name="bottom"/>
  <anchor x="1342" y="-379" name="bottom1"/>
  <anchor x="937" y="1200" name="top"/>
  <outline>
    <contour>
      <point x="178" y="0" type="curve"/>
      <point x="523" y="0" type="line"/>
      <point x="522" y="14" type="line"/>
      <point x="470" y="113"/>
      <point x="441" y="218"/>
      <point x="441" y="321" type="curve" smooth="yes"/>
      <point x="441" y="343" type="line" smooth="yes"/>
      <point x="441" y="469"/>
      <point x="512" y="551"/>
      <point x="668" y="601" type="curve"/>
      <point x="820" y="546"/>
      <point x="891" y="469"/>
      <point x="891" y="343" type="curve" smooth="yes"/>
      <point x="891" y="321" type="line" smooth="yes"/>
      <point x="891" y="223"/>
      <point x="864" y="124"/>
      <point x="810" y="20" type="curve"/>
      <point x="810" y="0" type="line"/>
      <point x="1152" y="0" type="line"/>
      <point x="1209" y="86"/>
      <point x="1245" y="204"/>
      <point x="1245" y="337" type="curve" smooth="yes"/>
      <point x="1245" y="361" type="line" smooth="yes"/>
      <point x="1245" y="634"/>
      <point x="1069" y="811"/>
      <point x="667" y="874" type="curve"/>
      <point x="265" y="811"/>
      <point x="87" y="634"/>
      <point x="87" y="361" type="curve" smooth="yes"/>
      <point x="87" y="337" type="line" smooth="yes"/>
      <point x="87" y="203"/>
      <point x="122" y="85"/>
    </contour>
    <contour>
      <point x="498" y="700" type="line"/>
      <point x="842" y="700" type="line"/>
      <point x="842" y="1105" type="line"/>
      <point x="498" y="1105" type="line"/>
    </contour>
    <contour>
      <point x="57" y="986" type="line"/>
      <point x="1281" y="986" type="line"/>
      <point x="1281" y="1242" type="line"/>
      <point x="57" y="1242" type="line"/>
    </contour>
    <contour>
      <point x="1414" y="-733" type="curve"/>
      <point x="1382" y="-409" type="line"/>
      <point x="1273" y="-341"/>
      <point x="1057" y="-241"/>
      <point x="923" y="-196" type="curve"/>
      <point x="787" y="-410" type="line"/>
      <point x="961" y="-475"/>
      <point x="1257" y="-637"/>
    </contour>
    <contour>
      <point x="460" y="-430" type="line"/>
      <point x="911" y="-430" type="line"/>
      <point x="1059" y="-313" type="line"/>
      <point x="1119" y="-245"/>
      <point x="1152" y="-169"/>
      <point x="1152" y="-50" type="curve" smooth="yes"/>
      <point x="1152" y="35" type="line"/>
      <point x="810" y="20" type="line"/>
      <point x="810" y="-27" type="line"/>
      <point x="810" y="-104"/>
      <point x="802" y="-161"/>
      <point x="785" y="-224" type="curve"/>
      <point x="848" y="-129" type="line"/>
      <point x="451" y="-129" type="line"/>
    </contour>
    <component base="_cap.shiro_left"/>
    <component base="_cap.shiro_right" xOffset="1014"/>
  </outline>
</glyph>
<glyph name="Nukta.gm.001" format="2">
  <outline>
    <contour>
      <point x="-973" y="-360" type="curve" smooth="yes"/>
      <point x="-871" y="-360"/>
      <point x="-818" y="-303"/>
      <point x="-818" y="-207" type="curve" smooth="yes"/>
      <point x="-818" y="-195" type="line" smooth="yes"/>
      <point x="-818" y="-100"/>
      <point x="-871" y="-42"/>
      <point x="-973" y="-42" type="curve" smooth="yes"/>
      <point x="-1075" y="-42"/>
      <point x="-1127" y="-101"/>
      <point x="-1127" y="-195" type="curve" smooth="yes"/>
      <point x="-1127" y="-207" type="line" smooth="yes"/>
      <point x="-1127" y="-303"/>
      <point x="-1075" y="-360"/>
    </contour>
  </outline>
</glyph>
<glyph name="PairinHa.gm" format="2">
  <anchor x="700" y="100" name="_bottom"/>
  <anchor x="600" y="120" name="bottom1"/>
  <outline>
    <contour>
      <point x="43" y="-740" type="curve" smooth="yes"/>
      <point x="346" y="-740"/>
      <point x="492" y="-603"/>
      <point x="492" y="-375" type="curve" smooth="yes"/>
      <point x="492" y="67" type="line"/>
      <point x="150" y="67" type="line"/>
      <point x="150" y="-392" type="line" smooth="yes"/>
      <point x="150" y="-455"/>
      <point x="110" y="-492"/>
      <point x="34" y="-492" type="curve" smooth="yes"/>
      <point x="-47" y="-492"/>
      <point x="-103" y="-453"/>
      <point x="-103" y="-390" type="curve" smooth="yes"/>
      <point x="-103" y="-388" type="line" smooth="yes"/>
      <point x="-103" y="-342"/>
      <point x="-71" y="-318"/>
      <point x="-14" y="-318" type="curve" smooth="yes"/>
      <point x="66" y="-318" type="line"/>
      <point x="66" y="-80" type="line"/>
      <point x="-69" y="-80" type="line" smooth="yes"/>
      <point x="-286" y="-80"/>
      <point x="-414" y="-183"/>
      <point x="-414" y="-379" type="curve" smooth="yes"/>
      <point x="-414" y="-385" type="line" smooth="yes"/>
      <point x="-414" y="-576"/>
      <point x="-259" y="-740"/>
    </contour>
  </outline>
</glyph>
<glyph name="PairinRa.gm" format="2">
  <anchor x="700" y="100" name="_bottom"/>
  <anchor x="600" y="320" name="bottom1"/>
  <outline>
    <contour>
      <point x="754" y="-733" type="curve"/>
      <point x="722" y="-409" type="line"/>
      <point x="613" y="-341"/>
      <point x="397" y="-241"/>
      <point x="263" y="-196" type="curve"/>
      <point x="127" y="-410" type="line"/>
      <point x="301" y="-475"/>
      <point x="597" y="-637"/>
    </contour>
    <contour>
      <point x="-200" y="-430" type="line"/>
      <point x="251" y="-430" type="line"/>
      <point x="399" y="-313" type="line"/>
      <point x="459" y="-245"/>
      <point x="492" y="-169"/>
      <point x="492" y="-50" type="curve" smooth="yes"/>
      <point x="492" y="35" type="line"/>
      <point x="150" y="35" type="line"/>
      <point x="150" y="-27" type="line"/>
      <point x="150" y="-104"/>
      <point x="142" y="-161"/>
      <point x="125" y="-224" type="curve"/>
      <point x="188" y="-129" type="line"/>
      <point x="-209" y="-129" type="line"/>
    </contour>
  </outline>
</glyph>
<glyph name="PairinVa.gm" format="2">
  <anchor x="700" y="100" name="_bottom"/>
  <anchor x="600" y="120" name="bottom1"/>
  <outline>
    <contour>
      <point x="-23" y="-500" type="curve" smooth="yes"/>
      <point x="452" y="-500" type="line"/>
      <point x="452" y="-334" type="line"/>
      <point x="28" y="-334" type="line" smooth="yes"/>
      <point x="-6" y="-334"/>
      <point x="-24" y="-322"/>
      <point x="-24" y="-300" type="curve" smooth="yes"/>
      <point x="-24" y="-274"/>
      <point x="-5" y="-264"/>
      <point x="27" y="-264" type="curve" smooth="yes"/>
      <point x="492" y="-264" type="line"/>
      <point x="492" y="57" type="line"/>
      <point x="150" y="57" type="line"/>
      <point x="150" y="-92" type="line"/>
      <point x="-24" y="-92" type="line" smooth="yes"/>
      <point x="-194" y="-92"/>
      <point x="-281" y="-165"/>
      <point x="-281" y="-292" type="curve" smooth="yes"/>
      <point x="-281" y="-424"/>
      <point x="-184" y="-500"/>
    </contour>
    <contour>
      <point x="348" y="-750" type="curve" smooth="yes"/>
      <point x="407" y="-750"/>
      <point x="441" y="-744"/>
      <point x="489" y="-731" type="curve"/>
      <point x="505" y="-555" type="line"/>
      <point x="460" y="-566"/>
      <point x="425" y="-571"/>
      <point x="376" y="-571" type="curve" smooth="yes"/>
      <point x="264" y="-571"/>
      <point x="203" y="-543"/>
      <point x="189" y="-439" type="curve"/>
      <point x="-71" y="-426" type="line"/>
      <point x="-12" y="-667"/>
      <point x="129" y="-750"/>
    </contour>
  </outline>
</glyph>
<glyph name="Rha.gm" format="2">
  <advance width="1149"/>
  <anchor x="901" y="-160" name="bottom"/>
  <anchor x="1355" y="-267" name="bottom1"/>
  <anchor x="1107" y="1200" name="top"/>
  <outline>
    <contour>
      <point x="34" y="986" type="line"/>
      <point x="1123" y="986" type="line"/>
      <point x="1116" y="1242" type="line"/>
      <point x="34" y="1242" type="line"/>
    </contour>
    <contour>
      <point x="266" y="-180" type="line"/>
      <point x="620" y="-180" type="line"/>
      <point x="388" y="108" type="line"/>
      <point x="89" y="96" type="line"/>
    </contour>
    <contour>
      <point x="962" y="-433" type="curve" smooth="yes"/>
      <point x="1163" y="-433"/>
      <point x="1277" y="-333"/>
      <point x="1277" y="-181" type="curve" smooth="yes"/>
      <point x="1277" y="-128"/>
      <point x="1252" y="-65"/>
      <point x="1223" y="-20" type="curve" smooth="yes"/>
      <point x="1015" y="299" type="line"/>
      <point x="823" y="132" type="line"/>
      <point x="995" y="-123" type="line" smooth="yes"/>
      <point x="1009" y="-144"/>
      <point x="1020" y="-161"/>
      <point x="1020" y="-182" type="curve"/>
      <point x="1020" y="-209"/>
      <point x="999" y="-229"/>
      <point x="962" y="-229" type="curve"/>
      <point x="927" y="-229"/>
      <point x="901" y="-210"/>
      <point x="901" y="-184" type="curve"/>
      <point x="901" y="-160"/>
      <point x="918" y="-147"/>
      <point x="939" y="-140" type="curve"/>
      <point x="849" y="-3" type="line"/>
      <point x="729" y="-9"/>
      <point x="646" y="-84"/>
      <point x="646" y="-185" type="curve" smooth="yes"/>
      <point x="646" y="-329"/>
      <point x="778" y="-433"/>
    </contour>
    <contour>
      <point x="519" y="10" type="curve" smooth="yes"/>
      <point x="916" y="10"/>
      <point x="1085" y="150"/>
      <point x="1085" y="357" type="curve" smooth="yes"/>
      <point x="1085" y="382" type="line" smooth="yes"/>
      <point x="1085" y="562"/>
      <point x="958" y="661"/>
      <point x="722" y="663" type="curve"/>
      <point x="789" y="585" type="line"/>
      <point x="789" y="667" type="line"/>
      <point x="954" y="682"/>
      <point x="1051" y="785"/>
      <point x="1051" y="943" type="curve" smooth="yes"/>
      <point x="1051" y="1052" type="line"/>
      <point x="695" y="1052" type="line"/>
      <point x="695" y="959" type="line" smooth="yes"/>
      <point x="695" y="855"/>
      <point x="647" y="796"/>
      <point x="531" y="796" type="curve" smooth="yes"/>
      <point x="147" y="796" type="line"/>
      <point x="147" y="515" type="line"/>
      <point x="545" y="515" type="line" smooth="yes"/>
      <point x="694" y="515"/>
      <point x="733" y="473"/>
      <point x="733" y="408" type="curve" smooth="yes"/>
      <point x="733" y="396" type="line" smooth="yes"/>
      <point x="733" y="320"/>
      <point x="668" y="279"/>
      <point x="466" y="279" type="curve" smooth="yes"/>
      <point x="325" y="279"/>
      <point x="164" y="313"/>
      <point x="71" y="348" type="curve"/>
      <point x="89" y="96" type="line"/>
      <point x="179" y="60"/>
      <point x="329" y="10"/>
    </contour>
    <component base="_cap.shiro_left"/>
    <component base="_cap.shiro_right" xOffset="861"/>
  </outline>
</glyph>
<glyph name="TippiDist.gm" format="2">
  <anchor x="450" y="1200" name="_top"/>
  <outline>
    <contour>
      <point x="90" y="1359" type="curve"/>
      <point x="244" y="1359" type="line"/>
      <point x="236" y="1386"/>
      <point x="231" y="1413"/>
      <point x="231" y="1437" type="curve" smooth="yes"/>
      <point x="231" y="1501"/>
      <point x="269" y="1536"/>
      <point x="341" y="1536" type="curve" smooth="yes"/>
      <point x="414" y="1536"/>
      <point x="451" y="1501"/>
      <point x="451" y="1437" type="curve" smooth="yes"/>
      <point x="451" y="1412"/>
      <point x="446" y="1386"/>
      <point x="438" y="1359" type="curve"/>
      <point x="592" y="1359" type="line"/>
      <point x="633" y="1408"/>
      <point x="662" y="1473"/>
      <point x="662" y="1542" type="curve" smooth="yes"/>
      <point x="662" y="1692"/>
      <point x="542" y="1791"/>
      <point x="341" y="1791" type="curve" smooth="yes"/>
      <point x="144" y="1791"/>
      <point x="21" y="1692"/>
      <point x="21" y="1542" type="curve" smooth="yes"/>
      <point x="21" y="1473"/>
      <point x="49" y="1408"/>
    </contour>
  </outline>
</glyph>
<glyph name="Virama.gm.alt" format="2">
  <anchor x="700" y="100" name="_bottom1"/>
  <outline>
    <contour>
      <point x="375" y="-1163" type="line"/>
      <point x="632" y="-1165" type="line"/>
      <point x="416" y="-834" type="line"/>
      <point x="125" y="-834" type="line"/>
    </contour>
  </outline>
</glyph>
<glyph name="_EEmatra" format="2">
  <advance width="560"/>
  <anchor x="912" y="1387" name="top1"/>
  <outline>
    <contour>
      <point x="111" y="1192" type="line"/>
      <point x="450" y="1194" type="line"/>
      <point x="450" y="1308" type="line" smooth="yes"/>
      <point x="450" y="1592"/>
      <point x="286" y="1748"/>
      <point x="-13" y="1748" type="curve" smooth="yes"/>
      <point x="-300" y="1748"/>
      <point x="-468" y="1594"/>
      <point x="-468" y="1322" type="curve" smooth="yes"/>
      <point x="-468" y="1314" type="line"/>
      <point x="-126" y="1314" type="line"/>
      <point x="-126" y="1324" type="line" smooth="yes"/>
      <point x="-126" y="1422"/>
      <point x="-83" y="1474"/>
      <point x="-12" y="1474" type="curve" smooth="yes"/>
      <point x="72" y="1474"/>
      <point x="111" y="1423"/>
      <point x="111" y="1308" type="curve" smooth="yes"/>
    </contour>
    <contour>
      <point x="108" y="0" type="line"/>
      <point x="450" y="0" type="line"/>
      <point x="450" y="1035" type="line"/>
      <point x="108" y="1035" type="line"/>
    </contour>
    <contour>
      <point x="-113" y="986" type="line"/>
      <point x="574" y="986" type="line"/>
      <point x="596" y="1242" type="line"/>
      <point x="-95" y="1242" type="line"/>
    </contour>
  </outline>
</glyph>
<glyph name="_Ematra" format="2">
  <advance width="557"/>
  <outline>
    <contour>
      <point x="108" y="1194" type="line"/>
      <point x="447" y="1192" type="line"/>
      <point x="447" y="1308" type="line" smooth="yes"/>
      <point x="447" y="1423"/>
      <point x="487" y="1474"/>
      <point x="570" y="1474" type="curve" smooth="yes"/>
      <point x="641" y="1474"/>
      <point x="682" y="1422"/>
      <point x="684" y="1324" type="curve" smooth="yes"/>
      <point x="684" y="1314" type="line"/>
      <point x="1026" y="1314" type="line"/>
      <point x="1026" y="1322" type="line" smooth="yes"/>
      <point x="1026" y="1594"/>
      <point x="858" y="1748"/>
      <point x="571" y="1748" type="curve" smooth="yes"/>
      <point x="273" y="1748"/>
      <point x="108" y="1592"/>
      <point x="108" y="1308" type="curve" smooth="yes"/>
    </contour>
    <contour>
      <point x="108" y="0" type="line"/>
      <point x="450" y="0" type="line"/>
      <point x="450" y="1043" type="line"/>
      <point x="108" y="1045" type="line"/>
    </contour>
    <contour>
      <point x="-35" y="986" type="line"/>
      <point x="637" y="986" type="line"/>
      <point x="657" y="1242" type="line"/>
      <point x="-15" y="1242" type="line"/>
    </contour>
  </outline>
</glyph>
<glyph name="_cap.shiro_right" format="2">
  <advance width="317"/>
  <outline>
    <contour>
      <point x="181" y="986" type="line"/>
      <point x="332" y="986" type="line"/>
      <point x="352" y="1242" type="line"/>
      <point x="181" y="1242" type="line"/>
    </contour>
  </outline>
</glyph>
<glyph name="_danda" format="2">
  <advance width="629"/>
  <outline>
    <contour>
      <point x="179" y="0" type="line"/>
      <point x="521" y="0" type="line"/>
      <point x="521" y="986" type="line"/>
      <point x="588" y="986" type="line"/>
      <point x="588" y="1242" type="line"/>
      <point x="179" y="1242" type="line"/>
    </contour>
    <component base="_cap.shiro_right" xOffset="312"/>
  </outline>
</glyph>
<glyph name="_danda001" format="2">
  <advance width="558"/>
  <outline>
    <contour>
      <point x="108" y="453" type="line"/>
      <point x="450" y="453" type="line"/>
      <point x="450" y="1122" type="line"/>
      <point x="108" y="1122" type="line"/>
    </contour>
    <contour>
      <point x="-35" y="986" type="line"/>
      <point x="573" y="986" type="line"/>
      <point x="593" y="1242" type="line"/>
      <point x="-15" y="1242" type="line"/>
    </contour>
  </outline>
</glyph>
<glyph name="_part.shiro" format="2">
  <advance width="1332"/>
  <outline>
    <contour>
      <point x="-33" y="986" type="line"/>
      <point x="1346" y="986" type="line"/>
      <point x="1368" y="1242" type="line"/>
      <point x="-14" y="1242" type="line"/>
    </contour>
  </outline>
</glyph>
